<svg width="30" height="33" viewBox="0 0 30 33" fill="none" xmlns="http://www.w3.org/2000/svg">
<path d="M9.45376 2.96704H1.10569C0.721677 2.96704 0.409994 3.27872 0.409994 3.66273C0.409994 4.04674 0.721677 4.35843 1.10569 4.35843H9.45376C9.83778 4.35843 10.1495 4.04674 10.1495 3.66273C10.1495 3.27872 9.83778 2.96704 9.45376 2.96704Z" fill="white"/>
<path d="M2.08933 3.66267L4.3795 1.37249C4.65082 1.10118 4.65082 0.6601 4.3795 0.388787C4.10819 0.117475 3.66711 0.117475 3.3958 0.388787L0.613152 3.17157C0.34184 3.44288 0.34184 3.88396 0.613152 4.15527L3.39587 6.93798C3.53224 7.07292 3.71029 7.14114 3.8884 7.14114C4.06652 7.14114 4.24456 7.07299 4.37957 6.93661C4.65088 6.6653 4.65088 6.22422 4.37957 5.95291L2.08933 3.66267Z" fill="white"/>
<path d="M26.8455 14.0978C26.2737 14.0978 25.7408 14.2717 25.2983 14.5681C24.9171 13.4856 23.8833 12.7064 22.6715 12.7064C22.0997 12.7064 21.5668 12.8804 21.1243 13.1767C20.7431 12.0943 19.7093 11.3151 18.4975 11.3151C17.991 11.3151 17.5152 11.4515 17.1061 11.6894V7.14108C17.1061 5.6064 15.8581 4.35836 14.3234 4.35836C12.7888 4.35836 11.5407 5.6064 11.5407 7.14108V18.9675L9.12258 17.1546C7.68952 16.0791 5.64978 16.2224 4.3795 17.4913C3.56557 18.3053 3.56557 19.6284 4.3795 20.4424L14.2873 30.3515C15.4699 31.5342 17.0435 32.1853 18.716 32.1853H21.9759C26.1945 32.1853 29.6283 28.7529 29.6283 24.5329V16.8805C29.6283 15.3458 28.3802 14.0978 26.8455 14.0978ZM28.2369 24.5329C28.2369 27.9848 25.4278 30.7939 21.9759 30.7939H18.716C17.4137 30.7939 16.1907 30.2875 15.271 29.3678L5.36321 19.4587C5.09189 19.1874 5.09189 18.7463 5.36321 18.475C5.7945 18.045 6.37052 17.8238 6.94934 17.8238C7.41964 17.8238 7.89267 17.9699 8.28921 18.2676L11.8191 20.9153C12.0306 21.0739 12.3144 21.0976 12.5482 20.9808C12.7833 20.8625 12.9322 20.6218 12.9322 20.3588V7.14108C12.9322 6.37442 13.5555 5.74975 14.3235 5.74975C15.0915 5.74975 15.7148 6.37449 15.7148 7.14108V17.5762C15.7148 17.9602 16.0265 18.2719 16.4105 18.2719C16.7945 18.2719 17.1062 17.9602 17.1062 17.5762V14.0978C17.1062 13.3312 17.7295 12.7065 18.4975 12.7065C19.2656 12.7065 19.8889 13.3312 19.8889 14.0978V17.5762C19.8889 17.9602 20.2005 18.2719 20.5846 18.2719C20.9686 18.2719 21.2802 17.9602 21.2802 17.5762V15.4892C21.2802 14.7225 21.9035 14.0978 22.6716 14.0978C23.4396 14.0978 24.0629 14.7226 24.0629 15.4892V17.5762C24.0629 17.9602 24.3746 18.2719 24.7586 18.2719C25.1426 18.2719 25.4543 17.9602 25.4543 17.5762V16.8805C25.4543 16.1138 26.0776 15.4892 26.8456 15.4892C27.6136 15.4892 28.2369 16.1139 28.2369 16.8805V24.5329Z" fill="white"/>
</svg>
