<svg width="201" height="201" viewBox="0 0 201 201" fill="none" xmlns="http://www.w3.org/2000/svg">
<circle cx="100.104" cy="100.884" r="100" fill="white"/>
<path fill-rule="evenodd" clip-rule="evenodd" d="M98.4775 50.8843C99.6476 50.8843 100.596 51.8328 100.596 53.0029V61.7086C100.596 62.8787 99.6476 63.8273 98.4775 63.8273C97.3074 63.8273 96.3589 62.8787 96.3589 61.7086V53.0029C96.3589 51.8328 97.3074 50.8843 98.4775 50.8843Z" fill="#27A855"/>
<path fill-rule="evenodd" clip-rule="evenodd" d="M98.4775 137.941C99.6476 137.941 100.596 138.89 100.596 140.06V148.766C100.596 149.936 99.6476 150.884 98.4775 150.884C97.3074 150.884 96.3589 149.936 96.3589 148.766V140.06C96.3589 138.89 97.3074 137.941 98.4775 137.941Z" fill="#E9590D"/>
<path fill-rule="evenodd" clip-rule="evenodd" d="M63.1137 65.5209C63.9411 64.6935 65.2825 64.6935 66.1099 65.5209L72.291 71.702C73.1183 72.5294 73.1183 73.8708 72.291 74.6982C71.4636 75.5256 70.1221 75.5256 69.2947 74.6982L63.1137 68.5171C62.2863 67.6898 62.2863 66.3483 63.1137 65.5209Z" fill="#E9590D"/>
<path fill-rule="evenodd" clip-rule="evenodd" d="M124.664 127.07C125.491 126.243 126.832 126.243 127.66 127.07L133.841 133.251C134.668 134.079 134.668 135.42 133.841 136.248C133.013 137.075 131.672 137.075 130.845 136.248L124.664 130.066C123.836 129.239 123.836 127.898 124.664 127.07Z" fill="#27A855"/>
<path fill-rule="evenodd" clip-rule="evenodd" d="M72.291 127.07C73.1183 127.898 73.1183 129.239 72.291 130.066L66.1099 136.248C65.2825 137.075 63.9411 137.075 63.1137 136.248C62.2863 135.42 62.2863 134.079 63.1137 133.251L69.2947 127.07C70.1221 126.243 71.4636 126.243 72.291 127.07Z" fill="#27A855"/>
<path fill-rule="evenodd" clip-rule="evenodd" d="M133.841 65.5209C134.668 66.3483 134.668 67.6898 133.841 68.5171L127.66 74.6982C126.832 75.5256 125.491 75.5256 124.664 74.6982C123.836 73.8708 123.836 72.5294 124.664 71.702L130.845 65.5209C131.672 64.6935 133.013 64.6935 133.841 65.5209Z" fill="#E9590D"/>
<path fill-rule="evenodd" clip-rule="evenodd" d="M157.869 92.4585C156.63 91.9452 155.301 91.681 153.96 91.681L55.7428 91.681L37.867 101.896L55.7428 112.11L153.96 112.11C155.301 112.11 156.63 111.846 157.869 111.333C159.108 110.82 160.234 110.067 161.183 109.119C162.131 108.17 162.884 107.044 163.397 105.805C163.91 104.565 164.175 103.237 164.175 101.896C164.175 100.554 163.91 99.226 163.397 97.9867C162.884 96.7474 162.131 95.6213 161.183 94.6728C160.234 93.7243 159.108 92.9719 157.869 92.4585ZM54.5442 116.624L153.96 116.624C155.894 116.624 157.809 116.243 159.596 115.503C161.383 114.763 163.007 113.678 164.374 112.31C165.742 110.943 166.827 109.319 167.567 107.532C168.307 105.745 168.688 103.83 168.688 101.896C168.688 99.9616 168.307 98.0464 167.567 96.2595C166.827 94.4726 165.742 92.8489 164.374 91.4813C163.007 90.1136 161.383 89.0288 159.596 88.2886C157.809 87.5484 155.894 87.1675 153.96 87.1675H54.5442L32.8845 99.5444C31.0652 100.584 31.0652 103.207 32.8845 104.247L54.5442 116.624Z" fill="#2B71D9"/>
</svg>
