<svg width="201" height="201" viewBox="0 0 201 201" fill="none" xmlns="http://www.w3.org/2000/svg">
<circle cx="100.104" cy="100.884" r="100" fill="white"/>
<path fill-rule="evenodd" clip-rule="evenodd" d="M66.9429 58.0071C68.7858 56.1595 71.2852 55.1216 73.8913 55.1216H136.253V65.0436H140.479V53.0029C140.479 51.8328 139.533 50.8843 138.366 50.8843H73.8913C70.1643 50.8843 66.5898 52.3686 63.9544 55.0108C61.319 57.653 59.8384 61.2366 59.8384 64.9733V65.0436H64.0648V64.9733C64.0648 62.3604 65.1001 59.8546 66.9429 58.0071ZM64.0648 112.831H59.8384V136.795C59.8384 140.532 61.319 144.116 63.9544 146.758C66.5898 149.4 70.1643 150.884 73.8913 150.884H138.366C139.533 150.884 140.479 149.936 140.479 148.766V124.825V112.831H136.253V122.706H73.8913C70.2161 122.706 66.6892 124.15 64.0648 126.723V112.831ZM64.0648 136.795C64.0648 139.408 65.1001 141.914 66.9429 143.761C68.7858 145.609 71.2852 146.647 73.8913 146.647H136.253V126.944H73.8913C71.2852 126.944 68.7858 127.982 66.9429 129.829C65.1001 131.677 64.0648 134.182 64.0648 136.795Z" fill="#2B71D9"/>
<path fill-rule="evenodd" clip-rule="evenodd" d="M96.2759 103.097C96.2759 101.875 97.2664 100.884 98.4883 100.884L107.934 100.884C109.156 100.884 110.147 101.875 110.147 103.097C110.147 104.319 109.156 105.309 107.934 105.309L98.4883 105.309C97.2664 105.309 96.2759 104.319 96.2759 103.097Z" fill="#27A855"/>
<path fill-rule="evenodd" clip-rule="evenodd" d="M112.802 103.097C112.802 101.875 113.792 100.884 115.014 100.884L118.32 100.884C119.542 100.884 120.533 101.875 120.533 103.097C120.533 104.319 119.542 105.309 118.32 105.309L115.014 105.309C113.792 105.309 112.802 104.319 112.802 103.097Z" fill="#27A855"/>
<path fill-rule="evenodd" clip-rule="evenodd" d="M79.75 103.097C79.75 101.875 80.7405 100.884 81.9624 100.884L91.4084 100.884C92.6303 100.884 93.6208 101.875 93.6208 103.097C93.6208 104.319 92.6303 105.309 91.4084 105.309L81.9624 105.309C80.7405 105.309 79.75 104.319 79.75 103.097Z" fill="#27A855"/>
<path fill-rule="evenodd" clip-rule="evenodd" d="M79.75 76.5478C79.75 75.326 80.7405 74.3354 81.9624 74.3354L107.561 74.3355C108.782 74.3355 109.773 75.326 109.773 76.5478C109.773 77.7697 108.782 78.7602 107.561 78.7602L81.9624 78.7602C80.7405 78.7602 79.75 77.7697 79.75 76.5478Z" fill="#27A855"/>
<path fill-rule="evenodd" clip-rule="evenodd" d="M112.137 76.5478C112.137 75.326 113.128 74.3354 114.35 74.3354L118.245 74.3354C119.467 74.3354 120.458 75.326 120.458 76.5478C120.458 77.7697 119.467 78.7602 118.245 78.7602L114.35 78.7602C113.128 78.7602 112.137 77.7697 112.137 76.5478Z" fill="#27A855"/>
<path fill-rule="evenodd" clip-rule="evenodd" d="M79.75 89.8223C79.75 88.6004 80.7405 87.6099 81.9624 87.6099L104.913 87.6099C106.134 87.6099 107.125 88.6004 107.125 89.8223C107.125 91.0441 106.134 92.0346 104.913 92.0346L81.9624 92.0346C80.7405 92.0346 79.75 91.0441 79.75 89.8223Z" fill="#27A855"/>
<path fill-rule="evenodd" clip-rule="evenodd" d="M109.476 89.8223C109.476 88.6004 110.467 87.6099 111.688 87.6099H118.246C119.468 87.6099 120.458 88.6004 120.458 89.8223C120.458 91.0441 119.468 92.0346 118.246 92.0346H111.688C110.467 92.0346 109.476 91.0441 109.476 89.8223Z" fill="#27A855"/>
<path fill-rule="evenodd" clip-rule="evenodd" d="M52.2131 84.0082C52.2131 86.4519 50.232 88.433 47.7883 88.433L44.3046 88.433C42.0911 88.433 39.966 89.3144 38.3973 90.8871C36.8283 92.4601 35.9448 94.596 35.9448 96.8255C35.9448 99.055 36.8283 101.191 38.3973 102.764C39.966 104.337 42.0911 105.218 44.3046 105.218H68.9326V80.5145C68.9328 79.4109 68.7162 78.3183 68.2953 77.2992C67.8744 76.2802 67.2577 75.355 66.4809 74.5762C65.7042 73.7975 64.7826 73.1804 63.7692 72.7597C62.7558 72.339 61.67 72.1228 60.5739 72.123L60.5718 72.123C59.4756 72.1228 58.3898 72.339 57.3764 72.7597C56.363 73.1804 55.4414 73.7975 54.6647 74.5762C53.8879 75.355 53.2712 76.2802 52.8503 77.2992C52.4294 78.3183 52.2128 79.4109 52.2131 80.5145L52.2131 80.5156V84.0082ZM73.3574 109.643H44.3046C40.9139 109.643 37.6621 108.292 35.2645 105.889C32.867 103.485 31.52 100.225 31.52 96.8255C31.52 93.4262 32.867 90.166 35.2645 87.7623C37.6621 85.3586 40.9139 84.0082 44.3046 84.0082L47.7883 84.0082V80.5156C47.7879 78.8323 48.1183 77.1654 48.7606 75.6101C49.403 74.0549 50.3447 72.6417 51.5319 71.4515C52.7191 70.2612 54.1287 69.3171 55.6799 68.6731C57.2312 68.0291 58.8938 67.6978 60.5728 67.6982C62.2518 67.6978 63.9144 68.0291 65.4657 68.6731C67.017 69.3171 68.4265 70.2612 69.6137 71.4515C70.801 72.6417 71.7427 74.0549 72.385 75.6101C73.0273 77.1654 73.3578 78.8323 73.3574 80.5156V109.643Z" fill="#E9590D"/>
<path fill-rule="evenodd" clip-rule="evenodd" d="M147.995 84.0082C147.995 86.4519 149.976 88.433 152.42 88.433L155.903 88.433C158.117 88.433 160.242 89.3144 161.811 90.8871C163.38 92.4601 164.263 94.596 164.263 96.8255C164.263 99.055 163.38 101.191 161.811 102.764C160.242 104.337 158.117 105.218 155.903 105.218H131.275V80.5145C131.275 79.4109 131.492 78.3183 131.913 77.2992C132.334 76.2802 132.95 75.355 133.727 74.5762C134.504 73.7975 135.425 73.1804 136.439 72.7597C137.452 72.339 138.538 72.1228 139.634 72.123L139.636 72.123C140.732 72.1228 141.818 72.339 142.832 72.7597C143.845 73.1804 144.767 73.7975 145.543 74.5762C146.32 75.355 146.937 76.2802 147.358 77.2992C147.779 78.3183 147.995 79.4109 147.995 80.5145L147.995 80.5156V84.0082ZM126.851 109.643H155.903C159.294 109.643 162.546 108.292 164.943 105.889C167.341 103.485 168.688 100.225 168.688 96.8255C168.688 93.4262 167.341 90.166 164.943 87.7623C162.546 85.3586 159.294 84.0082 155.903 84.0082L152.42 84.0082V80.5156C152.42 78.8323 152.09 77.1654 151.447 75.6101C150.805 74.0549 149.863 72.6417 148.676 71.4515C147.489 70.2612 146.079 69.3171 144.528 68.6731C142.977 68.0291 141.314 67.6978 139.635 67.6982C137.956 67.6978 136.294 68.0291 134.742 68.6731C133.191 69.3171 131.782 70.2612 130.594 71.4515C129.407 72.6417 128.465 74.0549 127.823 75.6101C127.181 77.1654 126.85 78.8323 126.851 80.5156V109.643Z" fill="#E9590D"/>
</svg>
