<svg width="201" height="201" viewBox="0 0 201 201" fill="none" xmlns="http://www.w3.org/2000/svg">
<circle cx="100.104" cy="100.884" r="100" fill="white"/>
<path fill-rule="evenodd" clip-rule="evenodd" d="M100.537 102.341C88.0726 102.341 77.9681 112.446 77.9681 124.91C77.9681 137.375 88.0726 147.479 100.537 147.479C113.001 147.479 123.106 137.375 123.106 124.91C123.106 112.446 113.001 102.341 100.537 102.341ZM75.6923 124.91C75.6923 111.189 86.8157 100.065 100.537 100.065C114.258 100.065 125.382 111.189 125.382 124.91C125.382 138.631 114.258 149.755 100.537 149.755C86.8157 149.755 75.6923 138.631 75.6923 124.91ZM92.2871 117.798C92.2871 117.17 92.7965 116.66 93.425 116.66H93.4487C94.0771 116.66 94.5866 117.17 94.5866 117.798C94.5866 118.426 94.0771 118.936 93.4487 118.936H93.425C92.7965 118.936 92.2871 118.426 92.2871 117.798ZM106.511 117.798C106.511 117.17 107.021 116.66 107.649 116.66H107.673C108.301 116.66 108.811 117.17 108.811 117.798C108.811 118.426 108.301 118.936 107.673 118.936H107.649C107.021 118.936 106.511 118.426 106.511 117.798ZM91.9646 128.969L91.9879 128.998C92.0089 129.025 92.0432 129.067 92.0903 129.124C92.1846 129.236 92.33 129.402 92.5241 129.605C92.9132 130.011 93.4926 130.556 94.2424 131.102C95.7466 132.196 97.8872 133.255 100.537 133.255C103.187 133.255 105.327 132.196 106.832 131.102C107.581 130.556 108.161 130.011 108.55 129.605C108.744 129.402 108.889 129.236 108.984 129.124C109.031 129.067 109.065 129.025 109.086 128.998L109.109 128.969C109.486 128.466 110.2 128.364 110.702 128.741C111.205 129.118 111.307 129.831 110.93 130.334L110.02 129.651C110.93 130.334 110.93 130.334 110.93 130.334L110.927 130.338L110.923 130.343L110.911 130.359C110.903 130.369 110.894 130.381 110.883 130.395C110.879 130.4 110.875 130.406 110.871 130.411C110.837 130.454 110.789 130.513 110.727 130.587C110.604 130.734 110.425 130.938 110.193 131.18C109.73 131.663 109.05 132.302 108.17 132.942C106.415 134.219 103.814 135.531 100.537 135.531C97.2601 135.531 94.6594 134.219 92.9039 132.942C92.0239 132.302 91.3438 131.663 90.881 131.18C90.6491 130.938 90.4704 130.734 90.3471 130.587C90.2854 130.513 90.2374 130.454 90.2035 130.411C90.1865 130.39 90.1731 130.372 90.1631 130.359L90.1509 130.343L90.1468 130.338L90.1452 130.336C90.1452 130.336 90.144 130.334 91.0543 129.651L90.144 130.334C89.7669 129.831 89.8688 129.118 90.3715 128.741C90.8736 128.365 91.5855 128.466 91.963 128.967L91.9646 128.969Z" fill="#E9590D"/>
<path fill-rule="evenodd" clip-rule="evenodd" d="M74.563 124.91C74.563 110.565 86.192 98.936 100.537 98.936C114.882 98.936 126.511 110.565 126.511 124.91C126.511 139.255 114.882 150.884 100.537 150.884C86.192 150.884 74.563 139.255 74.563 124.91ZM100.537 101.195C87.4394 101.195 76.8216 111.812 76.8216 124.91C76.8216 138.008 87.4394 148.625 100.537 148.625C113.635 148.625 124.252 138.008 124.252 124.91C124.252 111.812 113.635 101.195 100.537 101.195ZM100.537 103.47C88.6963 103.47 79.0975 113.069 79.0975 124.91C79.0975 136.751 88.6963 146.35 100.537 146.35C112.378 146.35 121.977 136.751 121.977 124.91C121.977 113.069 112.378 103.47 100.537 103.47ZM76.8388 124.91C76.8388 111.822 87.4489 101.212 100.537 101.212C113.625 101.212 124.235 111.822 124.235 124.91C124.235 137.998 113.625 148.608 100.537 148.608C87.4489 148.608 76.8388 137.998 76.8388 124.91ZM91.1577 117.798C91.1577 116.546 92.1728 115.531 93.425 115.531H93.4487C94.7008 115.531 95.7159 116.546 95.7159 117.798C95.7159 119.05 94.7008 120.065 93.4487 120.065H93.425C92.1728 120.065 91.1577 119.05 91.1577 117.798ZM93.4165 117.795L93.4164 117.798L93.4165 117.801C93.4165 117.801 93.4173 117.802 93.4189 117.804C93.4205 117.806 93.422 117.806 93.422 117.806L93.4235 117.807L93.425 117.807H93.4487L93.4516 117.806L93.4532 117.805L93.4548 117.804C93.4564 117.802 93.4571 117.801 93.4571 117.801L93.4573 117.798L93.4571 117.795C93.4571 117.795 93.4564 117.794 93.4548 117.792C93.4532 117.79 93.4517 117.79 93.4517 117.79L93.4487 117.789H93.425L93.422 117.79L93.4189 117.792C93.4173 117.794 93.4165 117.795 93.4165 117.795ZM105.382 117.798C105.382 116.546 106.397 115.531 107.649 115.531H107.673C108.925 115.531 109.94 116.546 109.94 117.798C109.94 119.05 108.925 120.065 107.673 120.065H107.649C106.397 120.065 105.382 119.05 105.382 117.798ZM107.641 117.795L107.64 117.798L107.641 117.801L107.641 117.802L107.643 117.804C107.645 117.806 107.646 117.806 107.646 117.806L107.649 117.807H107.673L107.676 117.806C107.676 117.806 107.677 117.806 107.679 117.804L107.681 117.802L107.681 117.798L107.681 117.795L107.68 117.794L107.679 117.792C107.677 117.79 107.676 117.79 107.676 117.79L107.673 117.789H107.649L107.646 117.79C107.646 117.79 107.645 117.79 107.643 117.792C107.641 117.794 107.641 117.795 107.641 117.795ZM89.694 127.838C90.6921 127.089 92.1066 127.288 92.86 128.28L92.8733 128.297L92.8751 128.3C92.8901 128.319 92.917 128.352 92.9553 128.398C93.0352 128.493 93.1641 128.641 93.3394 128.824C93.692 129.191 94.2213 129.69 94.9067 130.189C96.2859 131.192 98.1982 132.126 100.537 132.126C102.876 132.126 104.788 131.192 106.167 130.189C106.853 129.69 107.382 129.191 107.735 128.824C107.91 128.641 108.039 128.493 108.119 128.398C108.157 128.352 108.184 128.319 108.199 128.3L108.201 128.297L108.214 128.28C108.967 127.288 110.382 127.089 111.38 127.838C112.382 128.589 112.585 130.01 111.834 131.012L111.832 131.013L111.83 131.017L111.827 131.02L111.823 131.025L111.82 131.03L111.806 131.048L111.771 131.093L111.756 131.112C111.716 131.163 111.661 131.231 111.592 131.313C111.454 131.477 111.259 131.699 111.008 131.961C110.509 132.482 109.779 133.169 108.834 133.856C106.954 135.223 104.125 136.66 100.537 136.66C96.9488 136.66 94.1197 135.223 92.2396 133.856C91.2951 133.169 90.565 132.482 90.0656 131.961C89.815 131.699 89.6197 131.477 89.482 131.313C89.4131 131.231 89.3584 131.163 89.3181 131.112C89.2979 131.086 89.2813 131.065 89.2684 131.048L89.2664 131.046L89.2542 131.03L89.2507 131.025L89.2466 131.02L89.2447 131.017M91.7971 130.502C92.2194 130.933 92.8147 131.481 93.5681 132.029C95.199 133.215 97.5714 134.401 100.537 134.401C103.503 134.401 105.875 133.215 107.506 132.029C108.259 131.481 108.855 130.933 109.277 130.502C109.273 130.498 109.268 130.495 109.264 130.491C108.842 130.921 108.248 131.468 107.496 132.015C105.867 133.2 103.498 134.384 100.537 134.384C97.5762 134.384 95.2073 133.2 93.5782 132.015C92.8261 131.468 92.2318 130.921 91.81 130.491C91.8057 130.495 91.8014 130.498 91.7971 130.502ZM89.2429 131.015L89.2405 131.012C88.4892 130.01 88.6922 128.589 89.694 127.838" fill="#E9590D"/>
<path fill-rule="evenodd" clip-rule="evenodd" d="M52.4849 69.0659C53.6803 69.0659 54.6494 70.035 54.6494 71.2304V78.1568C54.6494 79.3522 53.6803 80.3213 52.4849 80.3213C51.2895 80.3213 50.3204 79.3522 50.3204 78.1568V71.2304C50.3204 70.035 51.2895 69.0659 52.4849 69.0659ZM38.712 74.7735C39.5572 73.9282 40.9277 73.9282 41.773 74.7735L46.6735 79.6739C47.5187 80.5192 47.5187 81.8897 46.6735 82.735C45.8282 83.5803 44.4577 83.5803 43.6124 82.735L38.712 77.8345C37.8667 76.9893 37.8667 75.6188 38.712 74.7735ZM66.2579 74.7735C67.1032 75.6188 67.1032 76.9893 66.2579 77.8345L61.3574 82.735C60.5121 83.5803 59.1417 83.5803 58.2964 82.735C57.4511 81.8897 57.4511 80.5192 58.2964 79.6739L63.1968 74.7735C64.0421 73.9282 65.4126 73.9282 66.2579 74.7735ZM33.0044 88.5464C33.0044 87.351 33.9735 86.3819 35.1689 86.3819H42.0953C43.2907 86.3819 44.2598 87.351 44.2598 88.5464C44.2598 89.7419 43.2907 90.7109 42.0953 90.7109H35.1689C33.9735 90.7109 33.0044 89.7419 33.0044 88.5464ZM60.71 88.5464C60.71 87.351 61.6791 86.3819 62.8745 86.3819H69.8009C70.9964 86.3819 71.9654 87.351 71.9654 88.5464C71.9654 89.7419 70.9964 90.7109 69.8009 90.7109H62.8745C61.6791 90.7109 60.71 89.7419 60.71 88.5464ZM46.6735 94.3579C47.5187 95.2032 47.5187 96.5737 46.6735 97.419L41.773 102.319C40.9277 103.165 39.5572 103.165 38.712 102.319C37.8667 101.474 37.8667 100.104 38.712 99.2583L43.6124 94.3579C44.4577 93.5126 45.8282 93.5126 46.6735 94.3579ZM58.2964 94.3579C59.1417 93.5126 60.5121 93.5126 61.3574 94.3579L66.2579 99.2583C67.1032 100.104 67.1032 101.474 66.2579 102.319C65.4126 103.165 64.0421 103.165 63.1968 102.319L58.2964 97.419C57.4511 96.5737 57.4511 95.2032 58.2964 94.3579ZM52.4849 96.7715C53.6803 96.7715 54.6494 97.7406 54.6494 98.936V105.862C54.6494 107.058 53.6803 108.027 52.4849 108.027C51.2895 108.027 50.3204 107.058 50.3204 105.862V98.936C50.3204 97.7406 51.2895 96.7715 52.4849 96.7715Z" fill="#27A855"/>
<path fill-rule="evenodd" clip-rule="evenodd" d="M147.723 69.0659C148.919 69.0659 149.888 70.035 149.888 71.2304V78.1568C149.888 79.3522 148.919 80.3213 147.723 80.3213C146.528 80.3213 145.559 79.3522 145.559 78.1568V71.2304C145.559 70.035 146.528 69.0659 147.723 69.0659ZM133.95 74.7735C134.796 73.9282 136.166 73.9282 137.011 74.7735L141.912 79.6739C142.757 80.5192 142.757 81.8897 141.912 82.735C141.066 83.5803 139.696 83.5803 138.851 82.735L133.95 77.8345C133.105 76.9893 133.105 75.6188 133.95 74.7735ZM161.496 74.7735C162.341 75.6188 162.341 76.9893 161.496 77.8345L156.596 82.735C155.75 83.5803 154.38 83.5803 153.535 82.735C152.689 81.8897 152.689 80.5192 153.535 79.6739L158.435 74.7735C159.28 73.9282 160.651 73.9282 161.496 74.7735ZM128.243 88.5464C128.243 87.351 129.212 86.3819 130.407 86.3819H137.334C138.529 86.3819 139.498 87.351 139.498 88.5464C139.498 89.7419 138.529 90.7109 137.334 90.7109H130.407C129.212 90.7109 128.243 89.7419 128.243 88.5464ZM155.948 88.5464C155.948 87.351 156.917 86.3819 158.113 86.3819H165.039C166.235 86.3819 167.204 87.351 167.204 88.5464C167.204 89.7419 166.235 90.7109 165.039 90.7109H158.113C156.917 90.7109 155.948 89.7419 155.948 88.5464ZM141.912 94.3579C142.757 95.2032 142.757 96.5737 141.912 97.419L137.011 102.319C136.166 103.165 134.796 103.165 133.95 102.319C133.105 101.474 133.105 100.104 133.95 99.2583L138.851 94.3579C139.696 93.5126 141.066 93.5126 141.912 94.3579ZM153.535 94.3579C154.38 93.5126 155.75 93.5126 156.596 94.3579L161.496 99.2583C162.341 100.104 162.341 101.474 161.496 102.319C160.651 103.165 159.28 103.165 158.435 102.319L153.535 97.419C152.689 96.5737 152.689 95.2032 153.535 94.3579ZM147.723 96.7715C148.919 96.7715 149.888 97.7406 149.888 98.936V105.862C149.888 107.058 148.919 108.027 147.723 108.027C146.528 108.027 145.559 107.058 145.559 105.862V98.936C145.559 97.7406 146.528 96.7715 147.723 96.7715Z" fill="#E9590D"/>
<path fill-rule="evenodd" clip-rule="evenodd" d="M100.104 50.8843C101.299 50.8843 102.269 51.8534 102.269 53.0488V59.9752C102.269 61.1706 101.299 62.1397 100.104 62.1397C98.9086 62.1397 97.9396 61.1706 97.9396 59.9752V53.0488C97.9396 51.8534 98.9086 50.8843 100.104 50.8843ZM86.3311 56.5918C87.1764 55.7465 88.5469 55.7465 89.3922 56.5918L94.2926 61.4923C95.1379 62.3376 95.1379 63.7081 94.2926 64.5533C93.4473 65.3986 92.0768 65.3986 91.2315 64.5533L86.3311 59.6529C85.4858 58.8076 85.4858 57.4371 86.3311 56.5918ZM113.877 56.5918C114.722 57.4371 114.722 58.8076 113.877 59.6529L108.977 64.5533C108.131 65.3986 106.761 65.3986 105.916 64.5533C105.07 63.7081 105.07 62.3376 105.916 61.4923L110.816 56.5918C111.661 55.7465 113.032 55.7465 113.877 56.5918ZM80.6235 70.3648C80.6235 69.1694 81.5926 68.2003 82.788 68.2003H89.7144C90.9099 68.2003 91.8789 69.1694 91.8789 70.3648C91.8789 71.5602 90.9099 72.5293 89.7144 72.5293H82.788C81.5926 72.5293 80.6235 71.5602 80.6235 70.3648ZM108.329 70.3648C108.329 69.1694 109.298 68.2003 110.494 68.2003H117.42C118.615 68.2003 119.585 69.1694 119.585 70.3648C119.585 71.5602 118.615 72.5293 117.42 72.5293H110.494C109.298 72.5293 108.329 71.5602 108.329 70.3648ZM94.2926 76.1763C95.1379 77.0215 95.1379 78.392 94.2926 79.2373L89.3922 84.1378C88.5469 84.983 87.1764 84.983 86.3311 84.1378C85.4858 83.2925 85.4858 81.922 86.3311 81.0767L91.2315 76.1763C92.0768 75.331 93.4473 75.331 94.2926 76.1763ZM105.916 76.1763C106.761 75.331 108.131 75.331 108.977 76.1763L113.877 81.0767C114.722 81.922 114.722 83.2925 113.877 84.1378C113.032 84.983 111.661 84.983 110.816 84.1378L105.916 79.2373C105.07 78.392 105.07 77.0215 105.916 76.1763ZM100.104 78.5899C101.299 78.5899 102.269 79.559 102.269 80.7544V87.6808C102.269 88.8762 101.299 89.8453 100.104 89.8453C98.9086 89.8453 97.9396 88.8762 97.9396 87.6808V80.7544C97.9396 79.559 98.9086 78.5899 100.104 78.5899Z" fill="#2B71D9"/>
</svg>
