<svg width="201" height="201" viewBox="0 0 201 201" fill="none" xmlns="http://www.w3.org/2000/svg">
<circle cx="100.104" cy="100.884" r="100" fill="white"/>
<path fill-rule="evenodd" clip-rule="evenodd" d="M57.8472 72.0708C57.8472 70.8489 58.8377 69.8584 60.0596 69.8584L68.3101 69.8584C69.5319 69.8584 70.5224 70.8489 70.5224 72.0708C70.5224 73.2927 69.5319 74.2832 68.3101 74.2832L60.0596 74.2832C58.8377 74.2832 57.8472 73.2927 57.8472 72.0708Z" fill="#27A855"/>
<path fill-rule="evenodd" clip-rule="evenodd" d="M73.1568 71.9689C73.2126 70.7483 74.2473 69.8043 75.4679 69.8604L76.6093 69.9129C77.8298 69.9691 78.7741 71.0041 78.7183 72.2247C78.6625 73.4453 77.6278 74.3893 76.4073 74.3331L75.2659 74.2806C74.0453 74.2245 73.101 73.1895 73.1568 71.9689Z" fill="#27A855"/>
<path fill-rule="evenodd" clip-rule="evenodd" d="M42.5396 72.0708C42.5396 70.8489 43.5301 69.8584 44.7519 69.8584L53.0024 69.8584C54.2243 69.8584 55.2148 70.8489 55.2148 72.0708C55.2148 73.2927 54.2243 74.2832 53.0024 74.2832L44.7519 74.2832C43.5301 74.2832 42.5396 73.2927 42.5396 72.0708Z" fill="#27A855"/>
<path fill-rule="evenodd" clip-rule="evenodd" d="M42.539 84.4936C42.5493 83.2717 43.5481 82.2896 44.7699 82.2999L66.5273 82.4832C67.7491 82.4935 68.7313 83.4924 68.721 84.7142C68.7107 85.936 67.7118 86.9182 66.49 86.9079L44.7326 86.7245C43.5108 86.7142 42.5287 85.7154 42.539 84.4936Z" fill="#27A855"/>
<path fill-rule="evenodd" clip-rule="evenodd" d="M71.1635 84.7353C71.1738 83.5134 72.1726 82.5313 73.3944 82.5417L76.7058 82.5696C77.9276 82.58 78.9098 83.5788 78.8995 84.8007C78.8892 86.0225 77.8904 87.0046 76.6686 86.9943L73.3573 86.9663C72.1354 86.9559 71.1533 85.9571 71.1635 84.7353Z" fill="#27A855"/>
<path fill-rule="evenodd" clip-rule="evenodd" d="M42.7314 97.4946C42.7314 96.2727 43.722 95.2822 44.9438 95.2822L64.3338 95.2822C65.5557 95.2822 66.5462 96.2727 66.5462 97.4946C66.5462 98.7165 65.5557 99.707 64.3338 99.707L44.9438 99.707C43.722 99.707 42.7314 98.7165 42.7314 97.4946Z" fill="#27A855"/>
<path fill-rule="evenodd" clip-rule="evenodd" d="M68.9468 97.4946C68.9468 96.2727 69.9373 95.2822 71.1592 95.2822L76.6992 95.2822C77.921 95.2822 78.9115 96.2727 78.9115 97.4946C78.9115 98.7165 77.921 99.707 76.6992 99.707L71.1592 99.707C69.9373 99.707 68.9468 98.7165 68.9468 97.4946Z" fill="#27A855"/>
<path fill-rule="evenodd" clip-rule="evenodd" d="M98.1118 80.5454C98.1118 79.3235 99.1023 78.333 100.324 78.333L120.37 78.333C121.592 78.333 122.582 79.3235 122.582 80.5454C122.582 81.7673 121.592 82.7578 120.37 82.7578L100.324 82.7578C99.1023 82.7578 98.1118 81.7673 98.1118 80.5454Z" fill="#27A855"/>
<path fill-rule="evenodd" clip-rule="evenodd" d="M98.1118 105.969C98.1118 104.747 99.1023 103.757 100.324 103.757L121.959 103.757C123.181 103.757 124.172 104.747 124.172 105.969C124.172 107.191 123.181 108.182 121.959 108.182L100.324 108.182C99.1023 108.182 98.1118 107.191 98.1118 105.969Z" fill="#27A855"/>
<path fill-rule="evenodd" clip-rule="evenodd" d="M126.575 105.969C126.575 104.747 127.565 103.757 128.787 103.757L132.08 103.757C133.302 103.757 134.292 104.747 134.292 105.969C134.292 107.191 133.302 108.182 132.08 108.182L128.787 108.182C127.565 108.182 126.575 107.191 126.575 105.969Z" fill="#27A855"/>
<path fill-rule="evenodd" clip-rule="evenodd" d="M98.1118 118.681C98.1118 117.459 99.1023 116.469 100.324 116.469L119.714 116.469C120.936 116.469 121.927 117.459 121.927 118.681C121.927 119.903 120.936 120.894 119.714 120.894L100.324 120.894C99.1023 120.894 98.1118 119.903 98.1118 118.681Z" fill="#27A855"/>
<path fill-rule="evenodd" clip-rule="evenodd" d="M124.328 118.681C124.328 117.459 125.318 116.469 126.54 116.469H132.08C133.302 116.469 134.292 117.459 134.292 118.681C134.292 119.903 133.302 120.894 132.08 120.894H126.54C125.318 120.894 124.328 119.903 124.328 118.681Z" fill="#27A855"/>
<path fill-rule="evenodd" clip-rule="evenodd" d="M33.7253 50.8843C32.5074 50.8843 31.52 51.8328 31.52 53.0029V132.805C31.52 133.975 32.5074 134.924 33.7253 134.924H72.4891C76.3103 134.924 79.975 136.382 82.677 138.978C85.379 141.574 86.8969 145.095 86.8969 148.766C86.8969 149.936 87.8843 150.884 89.1022 150.884C90.3201 150.884 91.3075 149.936 91.3075 148.766C91.3075 145.095 92.8254 141.574 95.5274 138.978C98.2294 136.382 101.894 134.924 105.715 134.924H144.479C145.697 134.924 146.684 133.975 146.684 132.805V116.986H142.274V130.687H105.715C100.724 130.687 95.9378 132.591 92.4087 135.982C92.023 136.352 91.6557 136.737 91.3075 137.136V74.2835C91.3075 69.2015 93.4089 64.3275 97.1494 60.734C100.89 57.1404 105.963 55.1216 111.253 55.1216H142.274V72.9182H146.684V53.0029C146.684 51.8328 145.697 50.8843 144.479 50.8843H111.253C104.793 50.8843 98.5983 53.3495 94.0307 57.7378C91.9582 59.7288 90.2978 62.0417 89.1022 64.5541C87.9066 62.0417 86.2462 59.7288 84.1738 57.7378C79.6061 53.3495 73.4111 50.8843 66.9514 50.8843H33.7253ZM86.8969 137.136V74.2835C86.8969 69.2015 84.7955 64.3275 81.055 60.734C77.3145 57.1404 72.2413 55.1216 66.9514 55.1216H35.9306V130.687H72.4891C77.4801 130.687 82.2666 132.591 85.7957 135.982C86.1815 136.352 86.5487 136.737 86.8969 137.136Z" fill="#2B71D9"/>
<path fill-rule="evenodd" clip-rule="evenodd" d="M148.942 77.9391L146.482 80.4088C145.105 81.7912 142.872 81.7912 141.495 80.4088L139.035 77.9391C137.302 76.1993 134.951 75.2218 132.5 75.2218C130.048 75.2218 127.698 76.1993 125.964 77.9391C124.231 79.679 123.257 82.0388 123.257 84.4993C123.257 86.9599 124.231 89.3196 125.964 91.0595L143.989 109.153L162.013 91.0595C162.871 90.1982 163.553 89.175 164.017 88.0495C164.482 86.924 164.721 85.7176 164.721 84.4993C164.721 83.281 164.482 82.0746 164.017 80.9491C163.553 79.8236 162.872 78.801 162.013 77.9397L164.506 75.4361C165.692 76.6261 166.633 78.039 167.275 79.5941C167.917 81.1492 168.247 82.816 168.247 84.4993C168.247 86.1826 167.917 87.8494 167.275 89.4045C166.633 90.9596 165.692 92.3725 164.506 93.5625L143.989 114.159L123.471 93.5625C121.076 91.1588 119.731 87.8987 119.731 84.4993C119.731 81.1 121.076 77.8398 123.471 75.4361C125.865 73.0324 129.113 71.682 132.5 71.682C135.886 71.682 139.134 73.0324 141.528 75.4361L143.989 77.9058L146.449 75.4361C147.634 74.2456 149.042 73.3011 150.591 72.6568C152.14 72.0124 153.801 71.6808 155.477 71.6808C157.154 71.6808 158.815 72.0124 160.364 72.6568C161.913 73.3011 163.321 74.2456 164.506 75.4361L162.012 77.9386C161.154 77.0769 160.135 76.3933 159.014 75.927C157.893 75.4606 156.691 75.2206 155.477 75.2206C154.264 75.2206 153.062 75.4606 151.941 75.927C150.82 76.3933 149.8 77.0775 148.942 77.9391Z" fill="#E9590D"/>
<path fill-rule="evenodd" clip-rule="evenodd" d="M149.254 78.2519L146.794 80.7216C145.245 82.2769 142.732 82.2769 141.183 80.7216L138.723 78.2519C137.072 76.5951 134.834 75.6643 132.5 75.6643C130.165 75.6643 127.927 76.5951 126.276 78.2519C124.626 79.9088 123.698 82.156 123.698 84.4993C123.698 86.8426 124.626 89.0899 126.276 90.7467L143.989 108.527L161.701 90.7461C161.701 90.746 161.701 90.7462 161.701 90.7461C162.519 89.926 163.167 88.952 163.61 87.8802C164.052 86.8084 164.28 85.6595 164.28 84.4993C164.28 83.3391 164.052 82.1903 163.61 81.1184C163.167 80.0466 162.519 79.0728 161.701 78.2526C161.701 78.2523 161.701 78.2521 161.701 78.2518M161.701 78.2518C161.7 78.2516 161.701 78.252 161.701 78.2518V78.2518ZM161.694 77.6342C160.906 76.9149 160 76.337 159.014 75.927C157.893 75.4606 156.691 75.2206 155.477 75.2206C154.264 75.2206 153.062 75.4606 151.941 75.927C150.82 76.3933 149.8 77.0775 148.942 77.9391L146.482 80.4088C145.105 81.7912 142.872 81.7912 141.495 80.4088L139.035 77.9391C137.302 76.1993 134.951 75.2218 132.5 75.2218C130.048 75.2218 127.698 76.1993 125.964 77.9391C124.231 79.679 123.257 82.0388 123.257 84.4993C123.257 86.9599 124.231 89.3196 125.964 91.0595L143.989 109.153L162.013 91.0595C162.871 90.1982 163.553 89.175 164.017 88.0495C164.482 86.924 164.721 85.7176 164.721 84.4993C164.721 83.281 164.482 82.0746 164.017 80.9491C163.609 79.9596 163.033 79.0495 162.316 78.2588C162.218 78.1506 162.118 78.0447 162.015 77.9411C162.014 77.9406 162.014 77.9402 162.013 77.9397L164.506 75.4361L164.507 75.4372C164.611 75.5413 164.713 75.647 164.813 75.7544C165.855 76.8751 166.689 78.1755 167.275 79.5941C167.917 81.1492 168.247 82.816 168.247 84.4993C168.247 86.1826 167.917 87.8494 167.275 89.4045C166.633 90.9596 165.692 92.3725 164.506 93.5625L143.989 114.159L123.471 93.5625C121.076 91.1588 119.731 87.8987 119.731 84.4993C119.731 81.1 121.076 77.8398 123.471 75.4361C125.865 73.0324 129.113 71.682 132.5 71.682C135.886 71.682 139.134 73.0324 141.528 75.4361L143.989 77.9058L146.449 75.4361C147.634 74.2456 149.042 73.3011 150.591 72.6568C152.14 72.0124 153.801 71.6808 155.477 71.6808C157.154 71.6808 158.815 72.0124 160.364 72.6568C161.777 73.2446 163.073 74.0821 164.189 75.1285C164.29 75.2227 164.389 75.3186 164.486 75.4161C164.489 75.4192 164.492 75.4223 164.495 75.4255C164.499 75.429 164.503 75.4326 164.506 75.4361L162.012 77.9386C162.009 77.9359 162.007 77.9332 162.004 77.9306C162.002 77.9284 162 77.9262 161.997 77.924C161.997 77.9237 161.997 77.9235 161.997 77.9232C161.898 77.8245 161.797 77.7281 161.694 77.6342ZM146.137 75.1233C146.137 75.1233 146.137 75.1234 146.137 75.1233C147.363 73.8917 148.819 72.9146 150.422 72.248C152.025 71.5814 153.743 71.2383 155.477 71.2383C157.212 71.2383 158.93 71.5814 160.533 72.248C162.136 72.9147 163.592 73.8917 164.818 75.1234C166.045 76.3545 167.018 77.8161 167.682 79.4248C168.346 81.0336 168.688 82.7579 168.688 84.4993C168.688 86.2407 168.346 87.9651 167.682 89.5738C167.018 91.1826 166.045 92.6442 164.818 93.8753C164.818 93.8754 164.818 93.8753 164.818 93.8753L144.3 114.471C144.218 114.554 144.106 114.601 143.989 114.601C143.871 114.601 143.759 114.554 143.677 114.471L123.159 93.8753C120.682 91.3886 119.29 88.016 119.29 84.4993C119.29 80.9827 120.682 77.61 123.159 75.1233C125.636 72.6366 128.996 71.2395 132.5 71.2395C136.003 71.2395 139.363 72.6366 141.84 75.1233L143.989 77.2798L146.137 75.1233ZM149.255 78.251C150.072 77.4306 151.042 76.7798 152.11 76.3357C153.177 75.8916 154.322 75.6631 155.477 75.6631C156.633 75.6631 157.778 75.8916 158.845 76.3357C159.913 76.7798 160.883 77.4313 161.701 78.2518M149.255 78.251C149.255 78.2511 149.255 78.2509 149.255 78.251L149.254 78.2519L149.255 78.251Z" fill="#E9590D"/>
</svg>
