<svg width="201" height="201" viewBox="0 0 201 201" fill="none" xmlns="http://www.w3.org/2000/svg">
<circle cx="100.104" cy="100.884" r="100" fill="white"/>
<path fill-rule="evenodd" clip-rule="evenodd" d="M35.6152 90.3867C38.2373 87.759 41.7936 86.2827 45.5018 86.2827H69.0499C72.7581 86.2827 76.3144 87.759 78.9365 90.3867C81.5586 93.0144 83.0317 96.5784 83.0317 100.295V106.194C83.0317 107.416 82.0433 108.407 80.824 108.407C79.6048 108.407 78.6164 107.416 78.6164 106.194V100.295C78.6164 97.7519 77.6085 95.3134 75.8144 93.5155C74.0204 91.7176 71.5871 90.7075 69.0499 90.7075H45.5018C42.9646 90.7075 40.5313 91.7176 38.7373 93.5155C36.9432 95.3134 35.9353 97.7519 35.9353 100.295V106.194C35.9353 107.416 34.9469 108.407 33.7277 108.407C32.5084 108.407 31.52 107.416 31.52 106.194V100.295C31.52 96.5784 32.9931 93.0144 35.6152 90.3867Z" fill="#E9590D"/>
<path fill-rule="evenodd" clip-rule="evenodd" d="M57.2757 55.3091C51.9923 55.3091 47.7092 59.6013 47.7092 64.8961C47.7092 70.1908 51.9923 74.4831 57.2757 74.4831C62.5591 74.4831 66.8421 70.1908 66.8421 64.8961C66.8421 59.6013 62.5591 55.3091 57.2757 55.3091ZM43.2939 64.8961C43.2939 57.1576 49.5538 50.8843 57.2757 50.8843C64.9976 50.8843 71.2574 57.1576 71.2574 64.8961C71.2574 72.6346 64.9976 78.9079 57.2757 78.9079C49.5538 78.9079 43.2939 72.6346 43.2939 64.8961Z" fill="#E9590D"/>
<path fill-rule="evenodd" clip-rule="evenodd" d="M121.271 90.3867C123.894 87.759 127.45 86.2827 131.158 86.2827H154.706C158.414 86.2827 161.971 87.759 164.593 90.3867C167.215 93.0144 168.688 96.5784 168.688 100.295V106.194C168.688 107.416 167.7 108.407 166.48 108.407C165.261 108.407 164.273 107.416 164.273 106.194V100.295C164.273 97.7519 163.265 95.3134 161.471 93.5155C159.677 91.7176 157.243 90.7075 154.706 90.7075H131.158C128.621 90.7075 126.188 91.7176 124.394 93.5155C122.599 95.3134 121.592 97.7519 121.592 100.295V106.194C121.592 107.416 120.603 108.407 119.384 108.407C118.165 108.407 117.176 107.416 117.176 106.194V100.295C117.176 96.5784 118.649 93.0144 121.271 90.3867Z" fill="#27A855"/>
<path fill-rule="evenodd" clip-rule="evenodd" d="M142.932 55.3091C137.649 55.3091 133.365 59.6013 133.365 64.8961C133.365 70.1908 137.649 74.4831 142.932 74.4831C148.215 74.4831 152.498 70.1908 152.498 64.8961C152.498 59.6013 148.215 55.3091 142.932 55.3091ZM128.95 64.8961C128.95 57.1576 135.21 50.8843 142.932 50.8843C150.654 50.8843 156.914 57.1576 156.914 64.8961C156.914 72.6346 150.654 78.9079 142.932 78.9079C135.21 78.9079 128.95 72.6346 128.95 64.8961Z" fill="#27A855"/>
<path fill-rule="evenodd" clip-rule="evenodd" d="M78.0019 132.864C80.624 130.236 84.1803 128.76 87.8885 128.76H111.437C115.145 128.76 118.701 130.236 121.323 132.864C123.945 135.492 125.418 139.056 125.418 142.772V148.672C125.418 149.894 124.43 150.884 123.211 150.884C121.991 150.884 121.003 149.894 121.003 148.672V142.772C121.003 140.229 119.995 137.791 118.201 135.993C116.407 134.195 113.974 133.185 111.437 133.185H87.8885C85.3513 133.185 82.918 134.195 81.124 135.993C79.3299 137.791 78.322 140.229 78.322 142.772V148.672C78.322 149.894 77.3336 150.884 76.1144 150.884C74.8951 150.884 73.9067 149.894 73.9067 148.672V142.772C73.9067 139.056 75.3798 135.492 78.0019 132.864Z" fill="#2B71D9"/>
<path fill-rule="evenodd" clip-rule="evenodd" d="M99.6624 97.7866C94.379 97.7866 90.0959 102.079 90.0959 107.374C90.0959 112.668 94.379 116.961 99.6624 116.961C104.946 116.961 109.229 112.668 109.229 107.374C109.229 102.079 104.946 97.7866 99.6624 97.7866ZM85.6807 107.374C85.6807 99.6351 91.9405 93.3618 99.6624 93.3618C107.384 93.3618 113.644 99.6351 113.644 107.374C113.644 115.112 107.384 121.385 99.6624 121.385C91.9405 121.385 85.6807 115.112 85.6807 107.374Z" fill="#2B71D9"/>
</svg>
