<svg width="201" height="201" viewBox="0 0 201 201" fill="none" xmlns="http://www.w3.org/2000/svg">
<circle cx="100.104" cy="100.884" r="100" fill="white"/>
<path fill-rule="evenodd" clip-rule="evenodd" d="M74.7434 56.9397C76.5327 55.1504 78.9595 54.1451 81.4899 54.1451H155.886C158.416 54.1451 160.843 55.1504 162.633 56.9397C164.422 58.729 165.427 61.1558 165.427 63.6862V116.826C165.427 119.357 164.422 121.784 162.633 123.573C160.843 125.362 158.416 126.367 155.886 126.367H92.1179C91.8296 126.367 91.5532 126.482 91.3493 126.686L71.9489 146.086V121.536H69.7749V148.71C69.7749 149.15 70.0398 149.546 70.4459 149.715C70.8521 149.883 71.3196 149.79 71.6305 149.479L92.5682 128.541H155.886C158.993 128.541 161.973 127.307 164.17 125.11C166.367 122.913 167.601 119.933 167.601 116.826V63.6862C167.601 60.5792 166.367 57.5995 164.17 55.4025C161.973 53.2055 158.993 51.9712 155.886 51.9712H81.4899C78.3829 51.9712 75.4032 53.2055 73.2062 55.4025C71.0092 57.5995 69.7749 60.5792 69.7749 63.6862V66.1017H71.9489V63.6862C71.9489 61.1558 72.9541 58.729 74.7434 56.9397Z" fill="#0151C9"/>
<path fill-rule="evenodd" clip-rule="evenodd" d="M72.4376 54.6339C74.8384 52.233 78.0946 50.8843 81.4899 50.8843H155.886C159.281 50.8843 162.538 52.233 164.938 54.6339C167.339 57.0347 168.688 60.2909 168.688 63.6862V116.826C168.688 120.222 167.339 123.478 164.938 125.879C162.538 128.279 159.281 129.628 155.886 129.628H93.0184L72.3991 150.247C71.7774 150.869 70.8423 151.055 70.03 150.719C69.2177 150.382 68.688 149.59 68.688 148.71V121.536C68.688 120.936 69.1746 120.449 69.7749 120.449H71.9489C72.5492 120.449 73.0358 120.936 73.0358 121.536V143.462L90.5807 125.917C90.9884 125.509 91.5414 125.28 92.1179 125.28H155.886C158.128 125.28 160.278 124.39 161.864 122.804C163.449 121.219 164.34 119.068 164.34 116.826V63.6862C164.34 61.444 163.449 59.2937 161.864 57.7083C160.278 56.1228 158.128 55.2321 155.886 55.2321H81.4899C79.2477 55.2321 77.0974 56.1228 75.512 57.7082C73.9265 59.2937 73.0358 61.444 73.0358 63.6862V66.1017C73.0358 66.702 72.5492 67.1886 71.9489 67.1886H69.7749C69.1746 67.1886 68.688 66.702 68.688 66.1017V63.6862C68.688 60.2909 70.0368 57.0347 72.4376 54.6339ZM70.8619 146.086V148.71L72.7174 146.855C72.4066 147.166 71.9391 147.259 71.5329 147.09C71.1267 146.922 70.8619 146.526 70.8619 146.086ZM92.5682 127.454L92.1179 127.454L91.7997 127.773C92.0035 127.569 92.2799 127.454 92.5682 127.454Z" fill="#0151C9"/>
<path fill-rule="evenodd" clip-rule="evenodd" d="M58.0687 70.294C45.3285 70.294 35.0005 80.6219 35.0005 93.3621C35.0005 106.102 45.3285 116.43 58.0687 116.43C70.8089 116.43 81.1369 106.102 81.1369 93.3621C81.1369 80.6219 70.8089 70.294 58.0687 70.294ZM32.6743 93.3621C32.6743 79.3372 44.0438 67.9678 58.0687 67.9678C72.0936 67.9678 83.4631 79.3372 83.4631 93.3621C83.4631 107.387 72.0936 118.757 58.0687 118.757C44.0438 118.757 32.6743 107.387 32.6743 93.3621ZM49.6362 86.0927C49.6362 85.4504 50.1569 84.9296 50.7993 84.9296H50.8235C51.4659 84.9296 51.9866 85.4504 51.9866 86.0927C51.9866 86.7351 51.4659 87.2558 50.8235 87.2558H50.7993C50.1569 87.2558 49.6362 86.7351 49.6362 86.0927ZM64.175 86.0927C64.175 85.4504 64.6957 84.9296 65.3381 84.9296H65.3623C66.0047 84.9296 66.5254 85.4504 66.5254 86.0927C66.5254 86.7351 66.0047 87.2558 65.3623 87.2558H65.3381C64.6957 87.2558 64.175 86.7351 64.175 86.0927ZM49.3067 97.5105L49.3304 97.5409C49.3519 97.5681 49.3869 97.6115 49.4351 97.6689C49.5315 97.7838 49.6801 97.9539 49.8785 98.1609C50.2762 98.5759 50.8684 99.1334 51.6349 99.6909C53.1723 100.809 55.3603 101.892 58.0687 101.892C60.7771 101.892 62.9651 100.809 64.5025 99.6909C65.269 99.1334 65.8612 98.5759 66.2589 98.1609C66.4573 97.9539 66.6059 97.7838 66.7023 97.6689C66.7505 97.6115 66.7854 97.5681 66.807 97.5409L66.8307 97.5105C67.2161 96.9966 67.9452 96.8925 68.4591 97.2779C68.973 97.6633 69.0771 98.3924 68.6917 98.9063L67.7612 98.2084C68.6917 98.9063 68.6917 98.9063 68.6917 98.9063L68.6888 98.9101L68.6846 98.9156L68.6721 98.932C68.6645 98.9418 68.6549 98.9542 68.6434 98.9689C68.6394 98.9739 68.6352 98.9792 68.6308 98.9848C68.5962 99.0286 68.5472 99.0892 68.4841 99.1644C68.3581 99.3145 68.1754 99.5231 67.9384 99.7704C67.4653 100.264 66.7702 100.918 65.8707 101.572C64.0764 102.877 61.4181 104.218 58.0687 104.218C54.7193 104.218 52.061 102.877 50.2667 101.572C49.3672 100.918 48.6721 100.264 48.199 99.7704C47.962 99.5231 47.7793 99.3145 47.6533 99.1644C47.5902 99.0892 47.5412 99.0286 47.5066 98.9848C47.4892 98.9629 47.4755 98.9452 47.4653 98.932L47.4528 98.9156L47.4486 98.9101L47.447 98.9079C47.447 98.9079 47.4457 98.9063 48.3762 98.2084L47.4457 98.9063C47.0603 98.3924 47.1644 97.6633 47.6783 97.2779C48.1915 96.893 48.9192 96.9964 49.305 97.5084L49.3067 97.5105Z" fill="#E9590D"/>
<path fill-rule="evenodd" clip-rule="evenodd" d="M31.52 93.3621C31.52 78.6997 43.4063 66.8135 58.0687 66.8135C72.7311 66.8135 84.6174 78.6997 84.6174 93.3621C84.6174 108.025 72.7311 119.911 58.0687 119.911C43.4063 119.911 31.52 108.025 31.52 93.3621ZM58.0687 69.1221C44.6813 69.1221 33.8286 79.9747 33.8286 93.3621C33.8286 106.75 44.6813 117.602 58.0687 117.602C71.4561 117.602 82.3088 106.75 82.3088 93.3621C82.3088 79.9747 71.4561 69.1221 58.0687 69.1221ZM58.0687 71.4483C45.966 71.4483 36.1548 81.2594 36.1548 93.3621C36.1548 105.465 45.966 115.276 58.0687 115.276C70.1714 115.276 79.9826 105.465 79.9826 93.3621C79.9826 81.2594 70.1714 71.4483 58.0687 71.4483ZM33.8462 93.3621C33.8462 79.9844 44.691 69.1397 58.0687 69.1397C71.4464 69.1397 82.2912 79.9844 82.2912 93.3621C82.2912 106.74 71.4464 117.585 58.0687 117.585C44.691 117.585 33.8462 106.74 33.8462 93.3621ZM48.4819 86.0927C48.4819 84.8129 49.5195 83.7753 50.7993 83.7753H50.8235C52.1034 83.7753 53.1409 84.8129 53.1409 86.0927C53.1409 87.3726 52.1034 88.4101 50.8235 88.4101H50.7993C49.5194 88.4101 48.4819 87.3726 48.4819 86.0927ZM50.7907 86.0897L50.7905 86.0927L50.7907 86.0957C50.7907 86.0957 50.7914 86.0973 50.7931 86.099C50.7947 86.1006 50.7962 86.1013 50.7962 86.1013L50.7978 86.1015L50.7993 86.1015H50.8235L50.8265 86.1014L50.8282 86.1004L50.8298 86.099C50.8314 86.0973 50.8321 86.0958 50.8321 86.0958L50.8323 86.0927L50.8322 86.0897C50.8322 86.0897 50.8314 86.0881 50.8298 86.0865C50.8281 86.0849 50.8266 86.0841 50.8266 86.0841L50.8235 86.0839H50.7993L50.7963 86.0841L50.7931 86.0865C50.7914 86.0881 50.7907 86.0897 50.7907 86.0897ZM63.0207 86.0927C63.0207 84.8129 64.0582 83.7753 65.3381 83.7753H65.3623C66.6422 83.7753 67.6797 84.8129 67.6797 86.0927C67.6797 87.3726 66.6422 88.4101 65.3623 88.4101H65.3381C64.0582 88.4101 63.0207 87.3726 63.0207 86.0927ZM65.3295 86.0897L65.3293 86.0927L65.3295 86.0957L65.3302 86.097L65.3318 86.099C65.3335 86.1006 65.335 86.1013 65.335 86.1013L65.3381 86.1015H65.3623L65.3653 86.1014C65.3653 86.1014 65.3669 86.1006 65.3685 86.099L65.3706 86.0964L65.3711 86.0927L65.3709 86.0897L65.3701 86.0883L65.3685 86.0865C65.3669 86.0849 65.3654 86.0841 65.3654 86.0841L65.3623 86.0839H65.3381L65.3351 86.0841C65.3351 86.0841 65.3335 86.0849 65.3318 86.0865C65.3302 86.0881 65.3295 86.0897 65.3295 86.0897ZM46.9858 96.3545C48.006 95.5893 49.4518 95.7926 50.2219 96.8071L50.2354 96.8244L50.2372 96.8267C50.2526 96.8461 50.2801 96.8802 50.3193 96.9269C50.4009 97.0242 50.5327 97.1752 50.7119 97.3622C51.0722 97.7382 51.6133 98.2479 52.3138 98.7574C53.7236 99.7827 55.6781 100.737 58.0687 100.737C60.4593 100.737 62.4138 99.7827 63.8236 98.7574C64.5241 98.2479 65.0652 97.7382 65.4255 97.3622C65.6047 97.1752 65.7365 97.0242 65.8181 96.9269C65.8573 96.8802 65.8848 96.8461 65.9002 96.8267L65.9019 96.8244L65.9155 96.8071C66.6855 95.7926 68.1314 95.5893 69.1516 96.3545C70.1755 97.1224 70.383 98.5749 69.6151 99.5988L69.6139 99.6004L69.6111 99.6042L69.6088 99.6073L69.6045 99.6128L69.6013 99.6172L69.5866 99.6363L69.5508 99.6822L69.5358 99.7012C69.4947 99.7532 69.4387 99.8225 69.3683 99.9064C69.2275 100.074 69.028 100.302 68.7718 100.569C68.2613 101.102 67.515 101.804 66.5497 102.506C64.628 103.903 61.7363 105.372 58.0687 105.372C54.4011 105.372 51.5094 103.903 49.5877 102.506C48.6224 101.804 47.8761 101.102 47.3656 100.569C47.1094 100.302 46.9099 100.074 46.7691 99.9064C46.6987 99.8225 46.6427 99.7532 46.6015 99.7012C46.581 99.6752 46.564 99.6535 46.5507 99.6362L46.5487 99.6336L46.5362 99.6173L46.5327 99.6126L46.5285 99.6071L46.5265 99.6045M49.1354 99.078C49.5671 99.5185 50.1755 100.079 50.9456 100.639C52.6126 101.851 55.0375 103.063 58.0687 103.063C61.0999 103.063 63.5248 101.851 65.1918 100.639C65.9619 100.079 66.5703 99.5185 67.002 99.078C66.9976 99.0741 66.9932 99.0702 66.9888 99.0663C66.5577 99.5062 65.9502 100.065 65.1815 100.624C63.5163 101.835 61.095 103.046 58.0687 103.046C55.0424 103.046 52.6211 101.835 50.9559 100.624C50.1872 100.065 49.5797 99.5062 49.1486 99.0663C49.1442 99.0702 49.1398 99.0741 49.1354 99.078ZM46.5247 99.602L46.5223 99.5988C45.7544 98.5749 45.9619 97.1224 46.9858 96.3545" fill="#E9590D"/>
<path fill-rule="evenodd" clip-rule="evenodd" d="M100.547 91.5923C101.524 91.5923 102.316 90.7999 102.316 89.8224C102.316 88.8449 101.524 88.0525 100.547 88.0525C99.5691 88.0525 98.7766 88.8449 98.7766 89.8224C98.7766 90.7999 99.5691 91.5923 100.547 91.5923ZM100.547 95.1322C103.479 95.1322 105.856 92.7549 105.856 89.8224C105.856 86.8899 103.479 84.5127 100.547 84.5127C97.6141 84.5127 95.2368 86.8899 95.2368 89.8224C95.2368 92.7549 97.6141 95.1322 100.547 95.1322Z" fill="#27A855"/>
<path fill-rule="evenodd" clip-rule="evenodd" d="M118.246 91.5923C119.223 91.5923 120.016 90.7999 120.016 89.8224C120.016 88.8449 119.223 88.0525 118.246 88.0525C117.268 88.0525 116.476 88.8449 116.476 89.8224C116.476 90.7999 117.268 91.5923 118.246 91.5923ZM118.246 95.1322C121.178 95.1322 123.556 92.7549 123.556 89.8224C123.556 86.8899 121.178 84.5127 118.246 84.5127C115.313 84.5127 112.936 86.8899 112.936 89.8224C112.936 92.7549 115.313 95.1322 118.246 95.1322Z" fill="#27A855"/>
<path fill-rule="evenodd" clip-rule="evenodd" d="M135.945 91.5923C136.922 91.5923 137.715 90.7999 137.715 89.8224C137.715 88.8449 136.922 88.0525 135.945 88.0525C134.967 88.0525 134.175 88.8449 134.175 89.8224C134.175 90.7999 134.967 91.5923 135.945 91.5923ZM135.945 95.1322C138.877 95.1322 141.255 92.7549 141.255 89.8224C141.255 86.8899 138.877 84.5127 135.945 84.5127C133.013 84.5127 130.635 86.8899 130.635 89.8224C130.635 92.7549 133.013 95.1322 135.945 95.1322Z" fill="#27A855"/>
</svg>
