<svg width="161" height="72" viewBox="0 0 161 72" fill="none" xmlns="http://www.w3.org/2000/svg">
<path d="M149.622 44.3752C149.578 44.2583 149.534 44.156 149.49 44.039C145.116 32.8137 142.181 25.4763 140.537 21.5007C140.537 21.5007 140.537 21.5007 140.537 21.4861C140.478 21.3399 140.42 21.1937 140.361 21.0476C140.346 21.0183 140.346 21.0037 140.332 20.9745C140.317 20.9452 140.302 20.9014 140.288 20.8722C140.273 20.8283 140.244 20.7845 140.229 20.7406C140.214 20.7114 140.2 20.6822 140.185 20.6529C140.17 20.6091 140.141 20.5652 140.126 20.5214C140.126 20.5214 140.126 20.5068 140.111 20.5068C139.745 19.6298 139.466 18.972 139.26 18.5189C138.923 17.8612 138.673 17.6566 138.57 17.5981C138.556 17.5835 138.541 17.5835 138.526 17.5835C137.939 17.5835 136.956 17.5835 135.664 17.7297C134.314 17.8758 133.272 17.8758 132.509 17.8758C131.76 17.8758 130.718 17.8758 129.221 17.7297C127.827 17.5835 126.814 17.5835 126.154 17.5835C126.066 17.6712 125.845 17.9489 125.669 18.5774L125.655 18.6213C124.921 20.6091 121.516 29.9197 115.542 46.0561C109.143 63.3764 107.235 69.1499 107.088 69.8953C107.206 69.9976 107.954 70.4215 112.298 70.4215C117.024 70.4215 119.989 70.2753 120.841 70.1438C120.855 70.1438 121.486 69.983 122.073 67.2936C122.749 64.6042 123.189 63.4057 123.717 62.8795L123.791 62.8064L123.879 62.7625C124.51 62.4556 128.649 62.3971 131.056 62.3971C133.243 62.3971 140.464 62.4264 141.374 62.7187L141.476 62.7625L141.535 62.8064C141.799 62.9818 142.519 63.4641 143.854 69.0329L143.869 69.0914C143.972 69.8076 144.309 70.2022 144.94 70.3046C145.894 70.4361 148.228 70.5823 151.868 70.5823C152.044 70.5823 152.205 70.5823 152.367 70.5823C152.616 70.5823 152.866 70.5823 153.101 70.5823C153.247 70.5823 153.394 70.5823 153.541 70.5823C153.57 70.5823 153.6 70.5823 153.629 70.5823C153.673 70.5823 153.717 70.5823 153.746 70.5823C153.82 70.5823 153.879 70.5823 153.952 70.5823C154.363 70.5823 154.744 70.5677 155.111 70.553C155.126 70.553 155.126 70.553 155.141 70.553C155.214 70.553 155.273 70.553 155.346 70.553C155.376 70.553 155.39 70.553 155.42 70.553C156.388 70.5238 157.137 70.4799 157.709 70.4361C157.753 70.4361 157.812 70.4215 157.856 70.4215C157.9 70.4215 157.944 70.4069 157.988 70.4069C158.032 70.4069 158.062 70.4069 158.091 70.3923C158.106 70.3923 158.106 70.3923 158.12 70.3923C158.15 70.3923 158.179 70.3923 158.208 70.3776C158.223 70.3776 158.223 70.3776 158.238 70.3776C158.267 70.3776 158.296 70.3776 158.311 70.363C158.326 70.363 158.34 70.363 158.34 70.363C158.37 70.363 158.399 70.363 158.414 70.3484C158.428 70.3484 158.428 70.3484 158.443 70.3484C158.458 70.3484 158.487 70.3484 158.502 70.3338C158.517 70.3338 158.531 70.3338 158.531 70.3338C158.546 70.3338 158.561 70.3338 158.575 70.3338C158.59 70.3338 158.605 70.3338 158.605 70.3338C158.619 70.3338 158.634 70.3338 158.649 70.3338C158.663 70.3338 158.678 70.3338 158.678 70.3338C158.693 70.3338 158.693 70.3338 158.707 70.3338C158.722 70.3338 158.737 70.3338 158.737 70.3338H158.751C158.781 70.3192 158.81 70.3192 158.839 70.3046C158.854 70.3046 158.869 70.2899 158.883 70.2899C158.898 70.2899 158.913 70.2753 158.927 70.2753C158.942 70.2753 158.957 70.2607 158.971 70.2607C158.986 70.2607 159.001 70.2461 159.001 70.2461C159.016 70.2461 159.016 70.2315 159.03 70.2315C159.045 70.2315 159.045 70.2169 159.06 70.2169L159.074 70.2022L159.089 70.1876C159.089 70.1876 159.089 70.1876 159.089 70.173C159.089 70.1584 159.104 70.1584 159.104 70.1438C159.104 70.1292 159.104 70.1292 159.104 70.1292V70.1145C159.074 69.7199 158.12 66.5189 150.063 45.6761C149.945 45.1937 149.784 44.7845 149.622 44.3752ZM137.895 49.9586V49.9879V50.0171L137.866 50.1194C137.646 50.7772 136.912 51.0695 135.239 51.1279C135.004 51.1426 134.74 51.1426 134.461 51.1426C133.375 51.1426 132.465 51.0841 131.731 51.0402C131.291 51.011 130.909 50.9964 130.645 50.9964C129.911 50.9964 127.651 50.9964 127.651 49.6225C127.651 48.994 128.164 47.2692 129.735 42.5628C130.865 39.0403 131.76 36.5993 132.406 35.3277L133.037 34.0707L133.595 35.3569C134.035 36.3947 134.916 38.7187 136.237 42.2266L136.251 42.2705C137.543 46.4361 138.042 48.4093 138.042 49.3301C138.042 49.6225 137.954 49.8417 137.895 49.9586Z" fill="#049839"/>
<path d="M151.324 45.1499C145.027 28.9404 141.534 20.3753 140.463 17.949C139.905 16.8235 139.274 16.2827 138.555 16.2827C137.982 16.2827 136.911 16.2827 135.546 16.4289C134.269 16.575 133.271 16.575 132.537 16.575C131.803 16.575 130.805 16.575 129.381 16.4289C127.884 16.2827 126.842 16.2827 126.094 16.2827C125.404 16.2827 124.788 16.9989 124.45 18.1828C123.716 20.1853 120.296 29.5251 114.352 45.6031C111.167 54.2413 105.81 68.8722 105.81 69.91C105.81 71.2693 107.454 71.7224 112.327 71.7224C117.449 71.7224 120.252 71.5616 121.104 71.4155C122.131 71.2109 122.85 69.9977 123.364 67.586C123.569 66.7529 124.112 64.5897 124.567 63.9173C125.081 63.8296 126.989 63.6981 131.084 63.6981C137.498 63.6981 140.213 63.8442 140.859 63.9319C141.035 64.1804 141.622 65.2766 142.591 69.2961C142.782 70.5677 143.545 71.3716 144.748 71.5763C146.055 71.7663 148.726 71.8686 151.881 71.8686C157.106 71.8686 158.706 71.6347 159.073 71.5616C160.262 71.2693 160.453 70.4946 160.453 70.0562C160.453 69.6908 160.453 68.7407 151.324 45.1499ZM159.147 70.0708V70.0854C159.147 70.0854 159.147 70.1 159.132 70.1146C159.132 70.1146 159.132 70.1146 159.132 70.1292L159.117 70.1439L159.103 70.1585C159.103 70.1585 159.088 70.1731 159.073 70.1731C159.058 70.1731 159.058 70.1877 159.044 70.1877C159.029 70.1877 159.029 70.2023 159.014 70.2023C159 70.2023 158.985 70.2169 158.97 70.2169C158.956 70.2169 158.941 70.2316 158.926 70.2316C158.912 70.2316 158.897 70.2462 158.882 70.2462C158.853 70.2608 158.824 70.2608 158.794 70.2754H158.78C158.765 70.2754 158.765 70.2754 158.75 70.2754C158.736 70.2754 158.736 70.2754 158.721 70.2754C158.706 70.2754 158.692 70.2754 158.692 70.2754C158.677 70.2754 158.662 70.2754 158.648 70.2754C158.633 70.2754 158.618 70.2754 158.618 70.2754C158.603 70.2754 158.589 70.2754 158.574 70.2754C158.559 70.2754 158.545 70.2754 158.545 70.2754C158.53 70.2754 158.501 70.2754 158.486 70.29C158.471 70.29 158.471 70.29 158.457 70.29C158.427 70.29 158.413 70.29 158.383 70.3046C158.369 70.3046 158.354 70.3046 158.354 70.3046C158.325 70.3046 158.31 70.3046 158.281 70.3193C158.266 70.3193 158.266 70.3193 158.251 70.3193C158.222 70.3193 158.193 70.3193 158.163 70.3339C158.148 70.3339 158.149 70.3339 158.134 70.3339C158.104 70.3339 158.06 70.3339 158.031 70.3485C157.987 70.3485 157.943 70.3631 157.899 70.3631C157.855 70.3631 157.796 70.3777 157.752 70.3777C157.18 70.4216 156.431 70.4654 155.463 70.4946C155.433 70.4946 155.419 70.4946 155.389 70.4946C155.33 70.4946 155.257 70.4946 155.184 70.4946C155.169 70.4946 155.169 70.4946 155.154 70.4946C154.802 70.5093 154.406 70.5093 153.995 70.5239C153.936 70.5239 153.863 70.5239 153.789 70.5239C153.745 70.5239 153.701 70.5239 153.672 70.5239C153.643 70.5239 153.613 70.5239 153.584 70.5239C153.437 70.5239 153.29 70.5239 153.144 70.5239C152.909 70.5239 152.659 70.5239 152.41 70.5239C152.248 70.5239 152.072 70.5239 151.911 70.5239C148.271 70.5239 145.952 70.3777 144.983 70.2462C144.352 70.1439 144.014 69.7638 143.912 69.033L143.897 68.9746C142.547 63.4057 141.842 62.9234 141.578 62.748L141.519 62.7042L141.417 62.6603C140.507 62.3534 133.286 62.3387 131.099 62.3387C128.692 62.3387 124.553 62.3826 123.922 62.7042L123.834 62.748L123.76 62.8211C123.246 63.3327 122.791 64.5312 122.116 67.2352C121.544 69.9246 120.913 70.0854 120.883 70.0854C120.032 70.2316 117.067 70.3631 112.341 70.3631C107.997 70.3631 107.248 69.9246 107.131 69.8369C107.278 69.0915 109.186 63.318 115.585 45.9977C121.559 29.8613 124.978 20.5507 125.697 18.5629L125.712 18.519C125.888 17.8905 126.108 17.6128 126.197 17.5251C126.872 17.5251 127.87 17.5251 129.264 17.6713C130.761 17.8174 131.803 17.8174 132.552 17.8174C133.315 17.8174 134.342 17.8174 135.707 17.6713C136.984 17.5251 137.982 17.5251 138.569 17.5251C138.584 17.5251 138.584 17.5251 138.613 17.5397C138.716 17.5836 138.966 17.8028 139.303 18.4605C139.509 18.9137 139.787 19.5714 140.154 20.4484C140.154 20.4484 140.154 20.463 140.169 20.463C140.184 20.5068 140.213 20.5507 140.228 20.5945C140.242 20.6238 140.257 20.653 140.272 20.6822C140.286 20.7261 140.316 20.7699 140.331 20.8138C140.345 20.843 140.36 20.8869 140.375 20.9161C140.389 20.9453 140.389 20.9599 140.404 20.9892C140.463 21.1353 140.521 21.2669 140.58 21.4277C140.58 21.4277 140.58 21.4277 140.58 21.4423C142.224 25.4325 145.159 32.7699 149.533 43.9806C149.577 44.0976 149.621 44.1999 149.665 44.3168C149.827 44.7261 149.988 45.1353 150.149 45.5592C158.207 66.3875 159.161 69.5884 159.191 69.9977C159.147 70.0562 159.147 70.0562 159.147 70.0708Z" fill="white"/>
<path d="M136.237 42.2265C134.917 38.7185 134.036 36.3945 133.596 35.3568L133.038 34.0706L132.407 35.3276C131.761 36.5992 130.866 39.0401 129.736 42.5626C128.15 47.2837 127.651 48.9938 127.651 49.6223C127.651 50.9963 129.912 50.9963 130.645 50.9963C130.91 50.9963 131.291 51.0255 131.732 51.0401C132.465 51.084 133.361 51.1424 134.462 51.1424C134.74 51.1424 135.005 51.1424 135.239 51.1278C136.913 51.0693 137.646 50.7624 137.867 50.1193L137.896 50.017V49.9877V49.9585C137.955 49.8269 138.043 49.6223 138.043 49.3154C138.043 48.4092 137.544 46.436 136.252 42.2557L136.237 42.2265ZM136.736 49.3446C136.736 49.3592 136.736 49.3592 136.736 49.3738C136.736 49.3885 136.722 49.4177 136.707 49.4615C136.692 49.5054 136.663 49.5639 136.648 49.6223C136.502 49.6808 136.017 49.8416 134.476 49.8416C133.419 49.8416 132.539 49.7831 131.834 49.7393C131.35 49.71 130.983 49.6954 130.675 49.6954C129.589 49.6954 129.148 49.5492 128.987 49.4908C129.119 48.5407 130.381 44.7989 130.998 42.9573C131.776 40.5456 132.436 38.6308 132.994 37.2861C133.478 38.5139 134.139 40.2679 135.019 42.6065L135.049 42.665C135.9 45.4274 136.78 48.3799 136.78 49.3154C136.736 49.33 136.736 49.3446 136.736 49.3446Z" fill="white"/>
<path d="M89.284 70.0853C90.7371 70.4653 92.2782 70.6699 93.9073 70.6992C94.0834 70.6992 94.2742 70.6992 94.4504 70.6992C96.2556 70.6992 98.1196 70.4653 100.16 69.983C103.8 69.1206 104.343 68.4482 104.343 68.1267C104.343 67.1766 104.064 65.3642 103.477 62.4117C102.992 59.7369 102.581 58.6699 102.391 58.2607C102.244 58.3191 102.082 58.3922 101.877 58.4799L101.554 58.6115C101.349 58.6992 101.114 58.8015 100.85 58.9184C99.2057 59.5761 97.9875 59.8538 96.7693 59.8538C94.3183 59.8538 92.2488 59.1084 90.6197 57.6468C88.9905 56.1851 88.2126 54.2704 88.2126 51.771C88.2126 49.4324 89.0052 47.3569 90.4582 45.9099C91.9112 44.4629 93.9954 43.6736 96.3437 43.6736C97.4885 43.6736 98.8975 43.8928 100.189 44.2875C101.261 44.5798 101.936 44.7406 102.244 44.8136C102.273 44.7698 102.303 44.7113 102.317 44.6821C102.493 44.0098 102.934 42.3873 103.624 40.0633C103.8 39.4641 103.946 38.9087 104.078 38.4263L104.108 38.324C104.431 37.1985 104.695 36.2339 104.754 35.9123C104.695 35.8246 104.519 35.6492 104.225 35.4884C104.181 35.4592 104.137 35.4446 104.093 35.4154C101.128 33.7929 97.9582 33.0037 94.421 33.0037C89.0345 33.0037 84.6901 34.8015 81.1236 38.4994C77.6451 41.9635 75.8839 46.4799 75.8839 51.9172C75.8839 52.4141 75.8986 52.8965 75.9279 53.3788V53.3934C76.2215 58.0999 77.924 62.0171 81.1236 65.3203C83.516 67.7174 86.2019 69.2814 89.284 70.0853Z" fill="#049839"/>
<path d="M94.4515 72C96.3449 72 98.3116 71.7515 100.469 71.2546C103.581 70.5091 105.665 69.7052 105.665 68.1413C105.665 67.1035 105.386 65.2034 104.77 62.1924C104.05 58.2607 103.478 57.3398 103.082 57.0329L103.038 56.8429H102.362V57.3837L102.172 57.4421C102.186 57.3398 102.26 57.2521 102.304 57.2229L102.23 57.0913L102.157 56.9598C102.084 57.0036 101.702 57.1644 101.35 57.3252L101.042 57.4568C100.836 57.5445 100.587 57.6468 100.352 57.7637C98.8987 58.3484 97.8273 58.5968 96.7852 58.5968C94.6717 58.5968 92.8958 57.9683 91.5014 56.7259C90.1658 55.5274 89.52 53.9196 89.52 51.8149C89.52 49.827 90.1805 48.0731 91.384 46.8745C92.5876 45.676 94.3488 45.0183 96.3449 45.0183C96.8292 45.0183 98.1355 45.0767 99.838 45.5737C101.452 46.0122 102.201 46.1583 102.245 46.173L102.362 46.1876C103.052 46.1876 103.361 45.6029 103.537 45.2521L103.581 45.1352V45.1206C103.713 44.6236 104.124 43.0743 104.902 40.4726C105.078 39.8149 105.254 39.2448 105.386 38.7332C105.929 36.7893 106.09 36.2192 106.09 35.9269C106.09 35.2546 105.357 34.6553 104.725 34.3337C101.585 32.609 98.2235 31.7759 94.4515 31.7759C88.6981 31.7759 84.0308 33.7052 80.2148 37.6516C76.4868 41.3642 74.6082 46.173 74.6082 51.9756C74.6082 57.7052 76.4428 62.3825 80.2148 66.2996C84.0308 70.0706 88.8302 72 94.4515 72ZM75.9438 53.4226C75.9144 52.9403 75.8997 52.458 75.8997 51.961C75.8997 46.5237 77.661 42.0073 81.1394 38.5432C84.706 34.8453 89.0651 33.0475 94.4369 33.0475C97.974 33.0475 101.144 33.8368 104.109 35.4592C104.153 35.4884 104.197 35.503 104.241 35.5323C104.535 35.6931 104.711 35.8684 104.77 35.9561C104.711 36.2631 104.432 37.2424 104.124 38.3678L104.094 38.4702C103.962 38.9525 103.801 39.5079 103.639 40.1072C102.95 42.4458 102.509 44.0536 102.333 44.7259C102.318 44.7552 102.289 44.8136 102.26 44.8575C101.952 44.7844 101.262 44.6236 100.205 44.3313C98.8987 43.9367 97.5044 43.7174 96.3596 43.7174C94.0112 43.7174 91.9271 44.5067 90.4741 45.9537C89.021 47.4007 88.2285 49.4762 88.2285 51.8149C88.2285 54.3142 89.021 56.2436 90.6355 57.6906C92.2647 59.1522 94.3341 59.8977 96.7852 59.8977C98.0034 59.8977 99.2216 59.62 100.865 58.9622C101.13 58.8453 101.364 58.743 101.57 58.6553L101.893 58.5237C102.098 58.436 102.26 58.363 102.407 58.3045C102.597 58.6991 103.008 59.7661 103.493 62.4555C104.08 65.3934 104.359 67.2205 104.359 68.1705C104.359 68.4921 103.816 69.1498 100.176 70.0268C98.1355 70.5091 96.2568 70.743 94.4662 70.743C94.2754 70.743 94.0993 70.743 93.9232 70.743C92.294 70.6991 90.7529 70.4945 89.2999 70.1291C86.2177 69.3252 83.5318 67.7613 81.1541 65.408C77.9545 62.1047 76.252 58.1876 75.9584 53.4811C75.9584 53.4226 75.9438 53.4226 75.9438 53.4226Z" fill="white"/>
<path d="M58.7865 70.4214C58.8012 70.4214 58.8012 70.4214 58.7865 70.4214C58.8745 70.436 58.992 70.4507 59.1534 70.4799C59.7405 70.553 60.9 70.6553 62.9401 70.6991C63.2336 70.6991 63.5565 70.7138 63.8794 70.7138C64.0996 70.7138 64.3197 70.7138 64.5546 70.7138C68.2678 70.7138 69.8823 70.4945 70.2933 70.436C70.6309 70.3483 70.7776 70.2314 70.7923 70.1876C70.7923 68.4044 70.7923 65.6857 70.6455 62.0609C70.4988 58.4068 70.4988 55.6736 70.4988 53.8611C70.4988 50.8794 70.6162 48.0585 70.7336 45.4421C70.7042 45.4568 70.6896 45.4714 70.6602 45.486C69.0164 46.5968 67.123 47.1815 65.1857 47.1815C64.4518 47.1815 63.718 47.0938 63.0135 46.9184C61.3109 46.5822 59.7845 46.056 58.3755 45.5298C58.4636 48.0438 58.4636 50.9233 58.4636 53.7004C58.4636 55.4543 58.4636 58.0853 58.3168 61.6078C58.2875 62.2655 58.2728 62.8794 58.2434 63.4787C58.17 66.0511 58.17 68.0536 58.17 69.4568C58.17 69.7052 58.17 70.0706 58.1994 70.2314C58.3021 70.3191 58.4342 70.4068 58.6984 70.4068L58.7865 70.4214Z" fill="#049839"/>
<path d="M64.5542 72.0002C68.3115 72.0002 69.9847 71.7956 70.5278 71.6933L70.5718 71.6787C71.5405 71.4448 72.0835 70.8894 72.0835 70.1732C72.0835 68.3608 72.0835 65.6421 71.9368 61.9735C71.79 58.334 71.79 55.63 71.79 53.8322C71.79 50.485 71.9368 47.3279 72.0835 44.3754V44.3462C83.6197 35.2841 85.2048 23.6787 83.0326 16.5021V16.4729C80.9925 9.80781 75.8702 5.46676 69.6618 5.1452C67.5483 5.01366 63.4094 5.3206 59.2705 8.97468C55.7773 8.02462 52.3282 8.2731 49.2607 9.69088C49.0552 9.79319 48.8791 9.88089 48.703 9.95397C43.0963 12.7457 39.9848 19.0161 40.748 25.915C41.6433 33.9686 47.7343 41.0867 57.0395 45.0039C57.157 47.6202 57.157 50.7043 57.157 53.686C57.157 55.4253 57.157 58.0563 57.0102 61.535C56.8634 65.0575 56.8634 67.6884 56.8634 69.4424C56.8634 70.2171 56.8634 70.7286 57.201 71.0648C57.3771 71.2402 57.8174 71.6787 58.6247 71.6933C59.1971 71.8102 60.8849 72.0002 64.5542 72.0002ZM57.6413 43.8492C48.7323 40.1367 42.9055 33.3839 42.0543 25.7834C41.3498 19.4253 44.1971 13.6811 49.3047 11.1233C51.11 10.1878 53.0767 9.7055 55.1315 9.7055C56.4818 9.7055 57.8761 9.91012 59.2558 10.3194L59.608 10.4217L59.8869 10.1732C62.6609 7.62998 65.4495 6.753 67.5336 6.50452C67.6217 6.48991 67.7098 6.48991 67.7978 6.47529C68.062 6.44606 68.3115 6.43144 68.5464 6.43144C68.9426 6.41682 69.2949 6.43144 69.6031 6.44606C71.2029 6.53375 72.7146 6.89916 74.109 7.52766C77.6755 9.15008 80.4641 12.4534 81.8144 16.8675V16.8967C83.8986 23.8249 82.2547 35.021 70.7773 43.7323L70.7186 43.7761C70.4103 44.0831 70.1608 44.2439 69.9994 44.3316L69.9554 44.3608C67.9593 45.7201 65.5376 46.1732 63.292 45.6324C61.2078 45.2085 59.4172 44.5216 57.6853 43.8638L57.6413 43.8492ZM58.1697 69.457C58.1697 68.0392 58.1697 66.0514 58.2431 63.4789C58.2577 62.8797 58.2871 62.2658 58.3165 61.608C58.4632 58.0855 58.4632 55.4546 58.4632 53.7006C58.4632 50.9089 58.4632 48.0295 58.3752 45.5301C59.7695 46.0563 61.2959 46.5679 63.0131 46.9186C63.7176 47.094 64.4515 47.1817 65.1853 47.1817C67.1227 47.1817 69.016 46.5971 70.6599 45.4862C70.6892 45.4716 70.7039 45.457 70.7332 45.4424C70.6011 48.0587 70.4984 50.8797 70.4984 53.8614C70.4984 55.6738 70.4984 58.3925 70.6452 62.0612C70.792 65.7006 70.792 68.4046 70.792 70.1878C70.7773 70.2317 70.6158 70.3486 70.2929 70.4363C69.882 70.4948 68.2822 70.714 64.5542 70.714C64.3194 70.714 64.0992 70.714 63.8791 70.714C63.5415 70.714 63.2333 70.714 62.9397 70.6994C60.9143 70.6555 59.7401 70.5532 59.153 70.4802C58.9916 70.4655 58.8742 70.4363 58.8008 70.4363L58.7127 70.4217C58.4485 70.4217 58.3164 70.334 58.2137 70.2463C58.1697 70.0855 58.1697 69.7055 58.1697 69.457Z" fill="white"/>
<path d="M43.9179 44.609C43.8445 44.4044 43.7564 44.2144 43.683 44.0098C37.7975 28.8673 34.5099 20.8283 33.4825 18.5043C33.1009 17.7296 32.8073 17.5688 32.7633 17.5688C32.1762 17.5688 31.1929 17.5688 29.9013 17.715C28.551 17.8612 27.5089 17.8612 26.7457 17.8612C25.9972 17.8612 24.9551 17.8612 23.4581 17.715C22.0637 17.5688 21.051 17.5688 20.3906 17.5688C20.3025 17.6565 20.0823 17.9343 19.9062 18.5628L19.8915 18.6066C19.1283 20.6967 15.6352 30.2266 9.77905 46.0414C3.37986 63.3764 1.47184 69.1352 1.32507 69.8807C1.44249 69.983 2.19102 70.4069 6.53542 70.4069C11.2614 70.4069 14.2262 70.2607 15.0775 70.1291C15.0921 70.1291 15.7233 69.9684 16.3103 67.279C17.0002 64.5457 17.4258 63.391 17.9542 62.8648L18.0275 62.7918L18.1156 62.7479C18.7467 62.441 22.8857 62.3825 25.2927 62.3825C27.4796 62.3825 34.7007 62.4117 35.6107 62.704L35.7134 62.7479L35.7721 62.7918C36.0363 62.9671 36.7555 63.4495 38.0911 69.0183L38.1057 69.0768C38.2085 69.793 38.5461 70.1876 39.1772 70.2899C40.1312 70.4215 42.4648 70.5676 46.1047 70.5676C46.2809 70.5676 46.4423 70.5676 46.6038 70.5676C46.8533 70.5676 47.0881 70.5676 47.3229 70.5676C47.4844 70.5676 47.6458 70.5676 47.7926 70.5676C47.822 70.5676 47.8513 70.5676 47.866 70.5676C47.91 70.5676 47.954 70.5676 48.0128 70.5676C48.0715 70.5676 48.1302 70.5676 48.1889 70.5676C48.7026 70.553 49.1576 70.553 49.5832 70.5384C49.5979 70.5384 49.6126 70.5384 49.6272 70.5384C50.5959 70.5092 51.3444 70.4653 51.9168 70.4215C51.9168 70.4215 51.9168 70.4215 51.9315 70.4215C51.9756 70.4215 52.0196 70.4069 52.0783 70.4069C52.0783 70.4069 52.0783 70.4069 52.093 70.4069C52.137 70.4069 52.181 70.4069 52.2251 70.3922H52.2397C52.2691 70.3922 52.2985 70.3922 52.3425 70.3776C52.3572 70.3776 52.3718 70.3776 52.3718 70.3776C52.4012 70.3776 52.4159 70.3776 52.4452 70.363C52.4599 70.363 52.4746 70.363 52.4893 70.363C52.5039 70.363 52.5333 70.363 52.548 70.363C52.5626 70.363 52.5773 70.363 52.592 70.363C52.6067 70.363 52.636 70.363 52.6507 70.363C52.6654 70.363 52.6801 70.363 52.6947 70.363C52.7094 70.363 52.7241 70.363 52.7388 70.363C52.7534 70.363 52.7681 70.363 52.7828 70.363C52.7975 70.363 52.7975 70.363 52.8121 70.363C52.8268 70.363 52.8562 70.363 52.8709 70.3484C52.8855 70.3484 52.8855 70.3484 52.8855 70.3484C52.9002 70.3484 52.9149 70.3484 52.9442 70.3338H52.9589C52.9736 70.3338 52.9883 70.3338 53.0176 70.3192H53.0323C53.0617 70.3045 53.091 70.3045 53.1204 70.2899C53.135 70.2899 53.1497 70.2753 53.1644 70.2753C53.1791 70.2753 53.1937 70.2607 53.2084 70.2607C53.2231 70.2607 53.2378 70.2461 53.2378 70.2461C53.2525 70.2461 53.2671 70.2315 53.2671 70.2315C53.2818 70.2315 53.2818 70.2168 53.2965 70.2168C53.3112 70.2168 53.3112 70.2022 53.3258 70.2022L53.3405 70.1876L53.3552 70.173C53.3552 70.1584 53.3699 70.1584 53.3699 70.1438C53.3699 70.1291 53.3699 70.1291 53.3699 70.1291V70.1145C53.3405 69.7199 52.3865 66.5189 44.3288 45.676C44.182 45.2814 44.05 44.9306 43.9179 44.609ZM32.1028 49.9586V49.9879V50.0171L32.0735 50.1194C31.824 50.8648 30.8993 51.1425 28.6684 51.1425C27.5823 51.1425 26.6723 51.0841 25.9385 51.0402C25.4982 51.011 25.1166 50.9964 24.8524 50.9964C24.1185 50.9964 21.8583 50.9964 21.8583 49.6224C21.8583 48.9939 22.372 47.2692 23.9424 42.5628C25.0579 39.0841 25.9825 36.5847 26.6136 35.3277L27.2447 34.0707L27.8025 35.3569C27.8612 35.4885 27.9199 35.6346 27.9933 35.81C28.4776 36.9939 29.2995 39.1572 30.459 42.2412L30.4737 42.285C31.7653 46.4507 32.2643 48.4239 32.2643 49.3447C32.2349 49.6224 32.1469 49.8417 32.1028 49.9586Z" fill="#049839"/>
<path d="M34.6714 17.9636C34.099 16.8381 33.4826 16.2827 32.7634 16.2827C32.191 16.2827 31.1196 16.2827 29.7546 16.4289C28.4777 16.575 27.4797 16.575 26.7458 16.575C26.012 16.575 25.0139 16.575 23.5903 16.4289C22.0932 16.2827 21.0511 16.2827 20.3026 16.2827C19.6128 16.2827 18.9963 16.9989 18.6588 18.1828C17.8809 20.2876 14.3731 29.8613 8.56096 45.6031C5.37604 54.2267 0.0189209 68.8576 0.0189209 69.8954C0.0189209 71.2547 1.66275 71.7078 6.53553 71.7078C11.6578 71.7078 14.4611 71.547 15.3124 71.4009C16.3398 71.1962 17.059 69.9831 17.5727 67.5714C17.7781 66.7383 18.3212 64.5751 18.7762 63.9027C19.2899 63.815 21.1979 63.6835 25.2928 63.6835C31.7067 63.6835 34.4219 63.8296 35.0677 63.9173C35.2438 64.1658 35.8309 65.262 36.7996 69.2815C36.9904 70.5531 37.7536 71.357 38.9571 71.5617C40.2634 71.7517 42.9346 71.854 46.0755 71.854C51.3005 71.854 52.9003 71.6201 53.2672 71.547C54.4561 71.2547 54.6469 70.48 54.6469 70.0416C54.6469 69.6908 54.6469 68.7407 45.5178 45.15C39.236 28.9258 35.7429 20.3607 34.6714 17.9636ZM53.3553 70.0708V70.0854C53.3553 70.0854 53.3553 70.1 53.3406 70.1146L53.326 70.1293L53.3113 70.1439C53.3113 70.1439 53.2966 70.1585 53.2819 70.1585C53.2819 70.1585 53.2672 70.1731 53.2526 70.1731C53.2379 70.1731 53.2379 70.1877 53.2232 70.1877C53.2085 70.1877 53.1939 70.2023 53.1939 70.2023C53.1792 70.2023 53.1645 70.217 53.1498 70.217C53.1352 70.217 53.1205 70.2316 53.1058 70.2316C53.0764 70.2462 53.0471 70.2462 53.0177 70.2608H53.0031C52.9884 70.2608 52.9737 70.2608 52.9444 70.2754H52.9297C52.915 70.2754 52.9003 70.2754 52.871 70.29C52.8563 70.29 52.8563 70.29 52.8563 70.29C52.8416 70.29 52.8123 70.29 52.7976 70.3046C52.7829 70.3046 52.7829 70.3046 52.7682 70.3046C52.7535 70.3046 52.7389 70.3046 52.7242 70.3046C52.7095 70.3046 52.6948 70.3046 52.6802 70.3046C52.6655 70.3046 52.6508 70.3046 52.6361 70.3046C52.6215 70.3046 52.5921 70.3046 52.5774 70.3046C52.5627 70.3046 52.5481 70.3046 52.5334 70.3046C52.5187 70.3046 52.4894 70.3046 52.4747 70.3046C52.46 70.3046 52.4453 70.3046 52.4307 70.3046C52.4013 70.3046 52.3866 70.3047 52.3573 70.3193C52.3426 70.3193 52.3279 70.3193 52.3279 70.3193C52.2986 70.3193 52.2692 70.3193 52.2252 70.3339H52.2105C52.1665 70.3339 52.1224 70.3485 52.0784 70.3485C52.0784 70.3485 52.0784 70.3485 52.0637 70.3485C52.0197 70.3485 51.9757 70.3631 51.917 70.3631C51.917 70.3631 51.917 70.3631 51.9023 70.3631C51.3299 70.407 50.5813 70.4508 49.6127 70.48C49.598 70.48 49.5833 70.48 49.5686 70.48C49.143 70.4947 48.6733 70.5093 48.1743 70.5093C48.1156 70.5093 48.0569 70.5093 47.9982 70.5093C47.9542 70.5093 47.9101 70.5093 47.8514 70.5093C47.8221 70.5093 47.7927 70.5093 47.778 70.5093C47.6313 70.5093 47.4698 70.5093 47.3084 70.5093C47.0735 70.5093 46.8387 70.5093 46.5892 70.5093C46.4277 70.5093 46.2516 70.5093 46.0902 70.5093C42.4503 70.5093 40.1313 70.3631 39.1626 70.2316C38.5315 70.1293 38.1939 69.7492 38.0912 69.0184L38.0765 68.9599C36.7262 63.3911 36.0217 62.9088 35.7575 62.7334L35.6988 62.6895L35.5961 62.6457C34.6861 62.3388 27.465 62.3241 25.2781 62.3241C22.8711 62.3241 18.7322 62.368 18.101 62.6895L18.013 62.7334L17.9396 62.8065C17.4112 63.3327 16.9856 64.4874 16.2958 67.2206C15.7234 69.91 15.0922 70.0708 15.0629 70.0708C14.2116 70.217 11.2469 70.3485 6.52085 70.3485C2.17645 70.3485 1.42792 69.91 1.3105 69.8223C1.45727 69.0769 3.36529 63.3034 9.76448 45.9831C15.6206 30.1536 19.1138 20.6384 19.877 18.5482L19.8916 18.5044C20.0678 17.8759 20.2879 17.5982 20.376 17.5105C21.0511 17.5105 22.0492 17.5105 23.4435 17.6566C24.9405 17.8028 25.9826 17.8028 26.7311 17.8028C27.4944 17.8028 28.5217 17.8028 29.8867 17.6566C31.1636 17.5105 32.1617 17.5105 32.7487 17.5105C32.8074 17.5105 33.0863 17.6713 33.4679 18.4459C34.4953 20.7553 37.783 28.8089 43.6685 43.9514C43.7418 44.156 43.8299 44.3461 43.9033 44.5507C44.0354 44.8869 44.1675 45.223 44.2996 45.5592C52.3573 66.3875 53.3113 69.5884 53.3406 69.9977C53.3553 70.0562 53.3553 70.0562 53.3553 70.0708Z" fill="white"/>
<path d="M30.4458 42.2264C29.2864 39.1424 28.4644 36.9792 27.9801 35.7952C27.9067 35.6199 27.848 35.4737 27.7893 35.3421L27.2316 34.0559L26.6005 35.3129C25.9693 36.5699 25.0447 39.0693 23.9292 42.548C22.3441 47.2691 21.8451 48.9792 21.8451 49.6077C21.8451 50.9816 24.1054 50.9816 24.8392 50.9816C25.1034 50.9816 25.485 51.0108 25.9253 51.0255C26.6592 51.0693 27.5545 51.1278 28.6552 51.1278C30.8862 51.1278 31.8108 50.8501 32.0603 50.1046L32.0897 50.0023V49.9877V49.9585C32.1337 49.8415 32.2364 49.6223 32.2364 49.3153C32.2364 48.4091 31.7374 46.4213 30.4458 42.2557V42.2264ZM30.9302 49.3592C30.9302 49.3884 30.9155 49.4177 30.8862 49.4761C30.8715 49.52 30.8421 49.5784 30.8274 49.6369C30.6807 49.6954 30.1963 49.8561 28.6552 49.8561C27.5985 49.8561 26.7179 49.7977 26.0134 49.7538C25.529 49.7246 25.1621 49.71 24.8539 49.71C24.4429 49.71 24.1347 49.6954 23.8852 49.6661C23.4742 49.6223 23.2688 49.5492 23.166 49.5054C23.2541 48.8622 23.8852 46.8744 24.4576 45.1058C24.487 45.0181 24.5163 44.9451 24.531 44.872C24.5897 44.7112 24.6337 44.5504 24.6924 44.4043C24.8686 43.8635 25.03 43.3811 25.1768 42.9719C25.9547 40.5602 26.6151 38.6454 27.1729 37.3007C27.6572 38.5431 28.3177 40.3117 29.213 42.6942C30.0642 45.4566 30.9449 48.4091 30.9449 49.3446C30.9449 49.33 30.9302 49.3446 30.9302 49.3592Z" fill="white"/>
<path d="M69.9547 44.3751L69.9987 44.3459C70.1601 44.2582 70.395 44.0974 70.7179 43.7905L70.7766 43.7466C82.2394 35.0353 83.8832 23.8538 81.8137 16.911V16.8818C80.4781 12.4677 77.6748 9.16439 74.1083 7.54198C72.7139 6.91347 71.2022 6.53345 69.6024 6.46037C69.2942 6.44575 68.9419 6.43114 68.5457 6.44575C68.3108 6.44575 68.0613 6.47498 67.7971 6.4896C67.7091 6.50422 67.621 6.50422 67.533 6.51883C65.4635 6.76731 62.6749 7.64429 59.8862 10.1875L59.6074 10.436L59.2551 10.3337C57.8755 9.92444 56.4811 9.71981 55.1309 9.71981C53.0761 9.71981 51.1093 10.1875 49.3041 11.1376C44.1965 13.6954 41.3491 19.4397 42.0536 25.7978C42.9049 33.3983 48.7317 40.151 57.6406 43.8635L57.6847 43.8782C59.4165 44.5505 61.2218 45.2375 63.2913 45.6467C65.5369 46.1875 67.9586 45.7344 69.9547 44.3751ZM49.0399 26.8648C48.5996 23.6638 49.715 20.9013 51.9606 19.6443C54.4851 18.2265 57.9195 19.0158 61.3833 21.8221C61.4713 21.8952 61.5447 21.9537 61.6181 22.0268C61.8529 22.2168 62.0731 22.4068 62.2932 22.6114C62.4547 22.2314 62.6308 21.866 62.7923 21.5152C64.8617 17.2618 67.0926 15.8148 68.7511 15.4202C68.7805 15.4202 68.8099 15.4056 68.8245 15.4056C69.0153 15.3617 69.2061 15.3325 69.3823 15.3179C69.6905 15.2886 69.984 15.2886 70.2189 15.3179C72.5525 15.5225 74.5486 17.5834 75.4145 20.6674C76.8382 25.7539 75.1944 34.1145 65.8451 40.9403L65.7864 40.9841L65.713 40.9695C54.4851 38.2216 49.7297 31.8928 49.0399 26.8648Z" fill="#E9590D"/>
<path d="M66.3301 38.5286C66.3448 38.514 66.3595 38.4994 66.3742 38.4847C66.6384 38.2655 66.8879 38.0609 67.1374 37.8416C67.2108 37.7832 67.2695 37.7247 67.3282 37.6662C67.3869 37.6078 67.4603 37.5493 67.519 37.4908C67.563 37.447 67.5924 37.4178 67.6364 37.3739C67.7245 37.3008 67.8125 37.2131 67.8859 37.14C67.9153 37.1108 67.9446 37.0816 67.974 37.0523C68.062 36.9646 68.1501 36.877 68.2382 36.7893C68.2528 36.7746 68.2675 36.76 68.2822 36.7454C68.3849 36.6431 68.4877 36.5408 68.5904 36.4385C68.6051 36.4238 68.6344 36.3946 68.6491 36.38C68.7372 36.2923 68.8399 36.19 68.928 36.1023C69.1041 35.9123 69.2802 35.7223 69.4564 35.5176C69.4857 35.4738 69.5297 35.4446 69.5591 35.4007C74.7254 29.5103 74.7548 23.6492 73.6687 20.5213V20.5067C73.654 20.4628 73.6393 20.4044 73.61 20.3605C73.61 20.3459 73.5953 20.3459 73.5953 20.3313C73.5806 20.2874 73.5659 20.2582 73.5512 20.2144C73.5366 20.1997 73.5366 20.1705 73.5219 20.1559C72.7147 18.285 71.4378 17.1595 70.0288 17.0572C69.0014 16.9988 67.974 17.4811 66.9759 18.475C65.8458 19.6005 64.8184 21.296 63.9084 23.5323L63.8938 23.5615L62.9251 25.4762L61.7803 24.3362L61.3253 23.9269C59.8282 22.553 58.3605 21.5737 56.9809 21.0475C56.203 20.7552 55.4398 20.609 54.7353 20.609C54.0601 20.609 53.4437 20.7552 53.1208 20.989L53.0327 21.0475L52.9594 21.0767C51.3009 21.8952 50.4349 24 50.6991 26.5725C50.7284 26.8648 50.7872 27.1571 50.8605 27.464C51.1247 28.6187 51.6091 29.8027 52.3136 30.9135C52.4016 31.0597 52.5044 31.2058 52.6071 31.352C53.7666 33.0036 55.6746 34.9476 58.8155 36.6431C60.6061 37.6078 62.793 38.4994 65.4642 39.2009C65.699 39.0256 65.9192 38.8502 66.1393 38.6748C66.198 38.6309 66.2568 38.5871 66.3301 38.5286Z" fill="#CC151D"/>
<path d="M65.8163 40.9843L65.875 40.9405C75.2096 34.1 76.8681 25.7395 75.4445 20.6676C74.5785 17.569 72.5824 15.5227 70.2488 15.3181C69.9993 15.2888 69.7204 15.2888 69.4122 15.3181C69.2361 15.3327 69.0453 15.3619 68.8545 15.4058C68.8251 15.4058 68.7958 15.4204 68.7811 15.4204C67.1226 15.815 64.8917 17.2474 62.8222 21.5154C62.6607 21.8516 62.4846 22.2316 62.3232 22.6116C62.103 22.4216 61.8829 22.217 61.648 22.027C61.5746 21.9539 61.4866 21.8954 61.4132 21.8223C57.9494 19.0306 54.515 18.2267 51.9905 19.6445C49.7449 20.9015 48.6295 23.664 49.0698 26.865C49.7596 31.8784 54.515 38.2218 65.787 40.9697L65.8163 40.9843ZM58.8154 36.6725C55.6891 34.977 53.7665 33.033 52.607 31.3814C52.5042 31.2352 52.4015 31.0891 52.3134 30.9429C51.6236 29.8321 51.1246 28.6628 50.8604 27.4935C50.787 27.2011 50.743 26.8942 50.699 26.6019C50.4494 24.0294 51.3154 21.9246 52.9592 21.1061L53.0326 21.0769L53.1207 21.0184C53.4436 20.7846 54.06 20.6384 54.7351 20.6384C55.4396 20.6384 56.2028 20.7846 56.9807 21.0769C58.375 21.6177 59.8428 22.5824 61.3251 23.9563L61.7801 24.3656L62.9249 25.5056L63.8936 23.5909L63.9083 23.5617C64.8183 21.3254 65.8457 19.6299 66.9758 18.5044C67.9738 17.5105 69.0159 17.0282 70.0286 17.0866C71.4376 17.189 72.7145 18.329 73.5218 20.1853C73.5364 20.1999 73.5364 20.2291 73.5511 20.2438C73.5658 20.2876 73.5805 20.3168 73.5951 20.3607C73.5951 20.3753 73.6098 20.3753 73.6098 20.3899C73.6245 20.4338 73.6392 20.4922 73.6685 20.5361V20.5507C74.7546 23.6932 74.7106 29.5397 69.559 35.4301C69.5296 35.474 69.4856 35.5032 69.4562 35.547C69.2801 35.7371 69.104 35.9271 68.9278 36.1317C68.8398 36.2194 68.7517 36.3217 68.649 36.4094C68.6343 36.424 68.605 36.4533 68.5903 36.4679C68.4875 36.5702 68.3848 36.6725 68.2821 36.7748C68.2674 36.7894 68.2527 36.804 68.238 36.8187C68.15 36.9064 68.0619 36.9941 67.9738 37.0818C67.9445 37.111 67.9151 37.1402 67.8858 37.1695C67.7977 37.2425 67.7243 37.3302 67.6363 37.4033C67.5922 37.4472 67.5629 37.4764 67.5188 37.5202C67.4601 37.5787 67.3868 37.6372 67.328 37.6956C67.2693 37.7541 67.196 37.8126 67.1372 37.871C66.8877 38.0903 66.6382 38.3095 66.374 38.5142C66.3594 38.5288 66.3447 38.5434 66.33 38.558C66.2713 38.6165 66.1979 38.6603 66.1392 38.7188C65.919 38.8942 65.6989 39.0696 65.4641 39.245C62.7928 38.5142 60.606 37.6372 58.8154 36.6725Z" fill="white"/>
<path d="M4.92087 6.79645H7.38662C7.88564 6.79645 8.26724 6.86953 8.56078 7.03031C8.83964 7.17647 9.0598 7.45418 9.20657 7.86344L10.6156 11.5906H12.3328L10.9385 7.89267C10.6449 7.08878 10.1753 6.62105 9.51479 6.50412C10.234 6.29949 10.777 5.93409 11.1733 5.42251C11.5696 4.91094 11.7604 4.28244 11.7604 3.55162C11.7604 2.52848 11.4375 1.75382 10.777 1.21301C10.1165 0.657593 9.17721 0.379883 7.94434 0.379883H3.3064V11.5906H4.92087V6.79645ZM4.92087 1.68074H7.75354C8.59013 1.68074 9.20657 1.84152 9.58817 2.14846C9.98445 2.4554 10.1753 2.93774 10.1753 3.56624C10.1753 4.20936 9.96978 4.6917 9.57349 5.01326C9.17721 5.33482 8.56078 5.4956 7.73886 5.4956H4.92087V1.68074Z" fill="white"/>
<path d="M17.6452 11.6931C18.2029 11.6931 18.7606 11.6054 19.3183 11.4154C19.8761 11.2253 20.3311 10.9769 20.6833 10.6699L20.199 9.52985C19.4358 10.1291 18.5992 10.4214 17.6892 10.4214C16.0454 10.4214 15.1941 9.486 15.1501 7.62973H20.8448V7.36664C20.8448 6.13887 20.5365 5.17419 19.9201 4.48722C19.3037 3.80025 18.4524 3.44946 17.381 3.44946C16.6471 3.44946 15.9867 3.62486 15.3996 3.97565C14.8272 4.32644 14.3722 4.80878 14.0493 5.43728C13.7264 6.06578 13.5649 6.78198 13.5649 7.6005C13.5649 8.87212 13.9319 9.86603 14.651 10.5968C15.3702 11.3277 16.3683 11.6931 17.6452 11.6931ZM15.9279 5.17419C16.3095 4.8234 16.7939 4.63338 17.3956 4.63338C17.9827 4.63338 18.4524 4.80878 18.8046 5.15957C19.1569 5.51036 19.3624 6.02194 19.4211 6.69429H15.2088C15.2968 6.03655 15.5463 5.5396 15.9279 5.17419Z" fill="white"/>
<path d="M23.7369 11.1669C24.2799 11.5177 24.8817 11.6931 25.5715 11.6931C26.1879 11.6931 26.7163 11.5615 27.1713 11.313C27.6263 11.0646 27.9785 10.6991 28.2134 10.2314V11.5907H29.7985V0H28.1987V4.91108C27.9639 4.44336 27.6263 4.09257 27.1566 3.84409C26.7016 3.59561 26.1733 3.46407 25.5715 3.46407C24.867 3.46407 24.2506 3.62485 23.7075 3.96102C23.1791 4.2972 22.7682 4.77954 22.46 5.39342C22.1664 6.00731 22.0197 6.73812 22.0197 7.55664C22.0197 8.37515 22.1664 9.09135 22.4746 9.71985C22.7682 10.3484 23.1938 10.8307 23.7369 11.1669ZM24.2506 5.48112C24.6615 4.98417 25.2193 4.73569 25.9531 4.73569C26.6723 4.73569 27.23 4.98417 27.6263 5.48112C28.0226 5.97808 28.2134 6.67966 28.2134 7.58587C28.2134 8.49208 28.0226 9.19367 27.6263 9.69062C27.23 10.1876 26.6723 10.4361 25.9384 10.4361C25.2193 10.4361 24.6615 10.1876 24.2506 9.676C23.8396 9.16443 23.6488 8.46285 23.6488 7.55664C23.6341 6.66504 23.8396 5.96346 24.2506 5.48112Z" fill="white"/>
<path d="M35.5811 11.6931C36.1388 11.6931 36.6966 11.6054 37.2543 11.4154C37.812 11.2253 38.267 10.9769 38.6193 10.6699L38.1349 9.52985C37.3717 10.1291 36.5351 10.4214 35.6251 10.4214C33.9813 10.4214 33.13 9.486 33.086 7.62973H38.766V7.36664C38.766 6.13887 38.4578 5.17419 37.8414 4.48722C37.2249 3.80025 36.3737 3.44946 35.3022 3.44946C34.5684 3.44946 33.9079 3.62486 33.3208 3.97565C32.7484 4.32644 32.2934 4.80878 31.9705 5.43728C31.6477 6.06578 31.4862 6.78198 31.4862 7.6005C31.4862 8.87212 31.8531 9.86603 32.5723 10.5968C33.3062 11.3277 34.3042 11.6931 35.5811 11.6931ZM33.8639 5.17419C34.2455 4.8234 34.7298 4.63338 35.3316 4.63338C35.9187 4.63338 36.3883 4.80878 36.7406 5.15957C37.0928 5.51036 37.2983 6.02194 37.357 6.69429H33.1447C33.2328 6.03655 33.4823 5.5396 33.8639 5.17419Z" fill="white"/>
</svg>
