<svg width="125" height="34" viewBox="0 0 125 34" fill="none" xmlns="http://www.w3.org/2000/svg">
<path fill-rule="evenodd" clip-rule="evenodd" d="M32.2811 9.84807C30.8975 5.27158 27.3853 2.18511 23.1281 1.97225C21.5316 1.86582 18.4452 2.18511 15.4651 5.16515C12.6979 4.20728 9.93076 4.31371 7.48287 5.59087C3.65138 7.50661 1.52278 11.8702 2.05493 16.6596C2.58708 21.449 6.09927 27.1962 13.9751 30.4955C15.3587 31.0277 16.7423 31.5598 18.3387 31.8791C20.0416 32.3048 21.8509 31.8791 23.2345 30.9212C23.4474 30.8148 23.6602 30.6019 23.7667 30.4955C32.6004 23.7904 33.8775 15.1696 32.2811 9.84807ZM19.9352 27.5155C1.62921 23.0454 7.37643 5.27158 17.4873 14.6374C23.2345 0.907946 34.4097 16.8725 19.9352 27.5155Z" fill="#E9590D"/>
<path fill-rule="evenodd" clip-rule="evenodd" d="M32.5206 9.77645C34.1471 15.1981 32.8334 23.9197 23.9315 30.6845C23.8274 30.7887 23.6028 31.0117 23.363 31.1366C21.9307 32.1227 20.0572 32.5646 18.2839 32.1233C16.6691 31.7997 15.2705 31.2618 13.8929 30.732L13.8785 30.7264C5.92807 27.3958 2.34971 21.5764 1.80649 16.6874C1.26484 11.8126 3.43011 7.33908 7.36916 5.36845C9.84132 4.07931 12.6251 3.95598 15.3992 4.87898C18.4055 1.94003 21.5105 1.61452 23.1427 1.72288C27.524 1.94289 31.1127 5.11975 32.5206 9.77645ZM23.1281 1.97246C27.3853 2.18532 30.8975 5.2718 32.2811 9.84829C33.8776 15.1698 32.6004 23.7906 23.7667 30.4957C23.6603 30.6022 23.4474 30.815 23.2346 30.9215C21.851 31.8793 20.0416 32.305 18.3388 31.8793C16.7423 31.56 15.3587 31.0279 13.9751 30.4957C6.0993 27.1964 2.58711 21.4492 2.05496 16.6598C1.52281 11.8705 3.65141 7.50683 7.4829 5.59109C9.93079 4.31393 12.698 4.2075 15.4652 5.16537C18.4452 2.18532 21.5317 1.86603 23.1281 1.97246ZM17.2913 14.459C7.30299 5.5016 1.74787 23.0746 19.9352 27.5157C34.3228 16.9366 23.3678 1.09963 17.5914 14.3936C17.5565 14.4739 17.5218 14.5552 17.4873 14.6376C17.4218 14.577 17.3565 14.5174 17.2913 14.459ZM19.881 27.2449C10.8899 25.01 7.91088 19.5627 8.30352 15.915C8.50132 14.0774 9.541 12.7003 11.0907 12.3125C12.6494 11.9225 14.8206 12.5082 17.3174 14.821L17.5798 15.0641L17.7179 14.7342C19.1436 11.3285 20.8699 9.85425 22.3704 9.60773C23.8506 9.36456 25.2451 10.3006 26.0684 12.0438C27.7015 15.5014 26.958 21.9892 19.881 27.2449Z" fill="white"/>
<path fill-rule="evenodd" clip-rule="evenodd" d="M33.1957 9.57167L33.1963 9.57362C34.9075 15.2774 33.4914 24.2831 24.3973 31.2165C24.2824 31.3311 24.0283 31.5745 23.7311 31.7395C22.1606 32.8083 20.1032 33.2977 18.1296 32.8119C16.4625 32.4761 15.0215 31.9219 13.6594 31.398L13.6189 31.3824L13.6059 31.377C5.44493 27.9582 1.67969 21.9354 1.10523 16.7652C0.536779 11.6492 2.80559 6.86552 7.04817 4.74001C9.5862 3.41833 12.4165 3.24833 15.215 4.08118C18.2951 1.24594 21.4539 0.904782 23.1837 1.01841C27.9152 1.25858 31.7194 4.6885 33.1957 9.57167ZM23.1281 1.97237C27.3853 2.18523 30.8975 5.2717 32.2811 9.8482C33.8775 15.1697 32.6004 23.7905 23.7667 30.4956C23.6602 30.6021 23.4474 30.8149 23.2345 30.9214C21.8509 31.8792 20.0416 32.305 18.3387 31.8792C16.7423 31.5599 15.3587 31.0278 13.9751 30.4956C6.09927 27.1963 2.58708 21.4491 2.05493 16.6597C1.52278 11.8704 3.65138 7.50673 7.48286 5.59099C9.93076 4.31383 12.6979 4.2074 15.4651 5.16527C18.4452 2.18523 21.5316 1.86594 23.1281 1.97237ZM16.7297 13.979C7.1014 6.16125 2.09167 23.1585 19.9352 27.5156C34.0706 17.1219 23.744 1.6531 17.8997 13.7211C17.7595 14.0106 17.6219 14.3159 17.4873 14.6376C17.2319 14.4009 16.9792 14.1817 16.7297 13.979ZM19.727 26.4774C26.3467 21.4147 26.8686 15.3901 25.4304 12.345C24.6864 10.77 23.543 10.13 22.4848 10.3039C21.3489 10.4905 19.7628 11.6763 18.3687 15.0065L17.8408 16.2676L16.8379 15.3386C14.4282 13.1063 12.4935 12.6887 11.2619 12.9969C10.0648 13.2965 9.17904 14.3733 9.00498 15.9904C8.66754 19.1253 11.2033 24.248 19.727 26.4774Z" fill="white"/>
<path fill-rule="evenodd" clip-rule="evenodd" d="M33.4358 9.50176C35.1769 15.3055 33.7247 24.412 24.562 31.4053C24.4399 31.5264 24.1769 31.7758 23.8626 31.9524C22.2431 33.051 20.1201 33.5575 18.0751 33.0559C16.3895 32.7159 14.9336 32.1559 13.5765 31.6339L13.5697 31.6313L13.6595 31.398C15.0216 31.9219 16.4625 32.4761 18.1296 32.8118C20.1033 33.2976 22.1606 32.8083 23.7312 31.7394C24.0284 31.5745 24.2824 31.331 24.3973 31.2165C33.4915 24.2831 34.9075 15.2774 33.1964 9.5736L33.1958 9.57165C31.7195 4.68848 27.9152 1.25855 23.1837 1.01839C21.4539 0.90476 18.2951 1.24592 15.215 4.08116C12.4165 3.24831 9.58623 3.4183 7.0482 4.73999C2.80562 6.86549 0.536809 11.6492 1.10526 16.7652C1.67972 21.9354 5.44496 27.9582 13.6059 31.377L13.6189 31.3824L13.6595 31.398L13.5697 31.6313L13.5223 31.6131L13.5094 31.6075C5.27385 28.1575 1.44232 22.0627 0.856786 16.7928C0.278865 11.5915 2.58417 6.69783 6.93446 4.51735C9.49458 3.18474 12.3414 2.99821 15.1503 3.80186C18.2573 0.998955 21.4357 0.653413 23.1982 0.768805C28.0541 1.01613 31.9346 4.53615 33.4351 9.4993L33.4358 9.50176ZM23.7667 30.4956C32.6004 23.7905 33.8776 15.1697 32.2811 9.84817C30.8975 5.27168 27.3853 2.18521 23.1281 1.97235C21.5317 1.86592 18.4452 2.18521 15.4652 5.16525C12.698 4.20738 9.93079 4.31381 7.48289 5.59097C3.65141 7.50671 1.52281 11.8703 2.05496 16.6597C2.58711 21.4491 6.0993 27.1963 13.9751 30.4956C15.3587 31.0278 16.7423 31.5599 18.3388 31.8792C20.0416 32.3049 21.851 31.8792 23.2345 30.9213C23.4474 30.8149 23.6603 30.602 23.7667 30.4956ZM14.0683 30.2636C6.26949 26.9953 2.82443 21.3211 2.30343 16.6321C1.78086 11.929 3.87201 7.67592 7.5947 5.81458L7.59854 5.81262C9.97782 4.57125 12.6726 4.46316 15.3834 5.4015L15.5313 5.45269L15.6419 5.34203C18.5603 2.4237 21.5703 2.11904 23.1115 2.22179L23.1156 2.22203C27.2476 2.42863 30.6824 5.42474 32.0416 9.92001M14.0683 30.2636C15.4527 30.7961 16.8165 31.3198 18.3878 31.6341L18.3995 31.6364C20.0245 32.0427 21.7607 31.6377 23.0922 30.7158L23.1069 30.7057L23.1227 30.6977C23.2928 30.6127 23.4772 30.4315 23.5899 30.3188L23.602 30.3068L23.6155 30.2965C32.3684 23.6527 33.607 15.1386 32.0416 9.92001M19.9893 27.7861L19.8759 27.7584C10.8816 25.5621 7.54591 20.145 7.78097 16.1669C7.89807 14.1853 8.91289 12.5528 10.5739 11.9483C12.2329 11.3446 14.4429 11.8002 16.8873 13.7849C17.0556 13.9216 17.2251 14.0655 17.3957 14.217C17.4874 14.0084 17.5805 13.8068 17.6747 13.6121C19.1509 10.564 20.9527 9.16582 22.6577 9.07404C24.3708 8.98183 25.844 10.2132 26.6402 12.0979C28.24 15.885 27.2229 22.4673 20.0833 27.717L19.9893 27.7861ZM17.5914 14.3935C17.6926 14.1605 17.7955 13.9364 17.8998 13.7211C23.744 1.65308 34.0706 17.1219 19.9352 27.5156C2.0917 23.1584 7.10143 6.16123 16.7297 13.979C16.9152 14.1297 17.1025 14.2895 17.2913 14.4589C17.3565 14.5173 17.4218 14.5768 17.4873 14.6375C17.5218 14.5551 17.5565 14.4738 17.5914 14.3935ZM16.838 15.3385C14.4282 13.1063 12.4935 12.6887 11.262 12.9969C10.0648 13.2965 9.17907 14.3733 9.00501 15.9903C8.66757 19.1253 11.2033 24.248 19.727 26.4774C26.3467 21.4147 26.8687 15.3901 25.4304 12.345C24.6865 10.7699 23.5431 10.13 22.4848 10.3038C21.3489 10.4904 19.7628 11.6763 18.3688 15.0065L17.8409 16.2675L16.838 15.3385ZM17.9334 16.694L16.6681 15.5219C14.2895 13.3187 12.4387 12.9601 11.3227 13.2394C10.2494 13.508 9.41909 14.4794 9.25358 16.0171C8.93531 18.9739 11.3188 23.9786 19.672 26.2043C26.1274 21.2127 26.5747 15.353 25.2043 12.4517C24.4897 10.9387 23.4361 10.4009 22.5253 10.5505C21.5183 10.716 19.982 11.8001 18.5994 15.103L17.9334 16.694Z" fill="white"/>
<path d="M12.0585 12.2963C11.5263 12.2963 10.8877 12.4027 10.462 12.722C8.97198 13.467 8.22697 15.2764 8.43983 17.405C8.86555 20.9172 12.0585 25.2808 19.9343 27.1965C26.4265 22.4072 27.4908 16.6599 26.4265 13.1478C25.7879 11.1256 24.5108 9.84842 23.0208 9.74199C21.105 9.63556 19.2957 11.4449 17.9121 14.8506L17.6992 15.2764L17.38 14.9571C15.4642 13.1478 13.6549 12.2963 12.0585 12.2963Z" fill="#CC151D"/>
<path fill-rule="evenodd" clip-rule="evenodd" d="M8.4398 17.405C8.22694 15.2764 8.97195 13.4671 10.462 12.7221C10.8877 12.4028 11.5263 12.2963 12.0584 12.2963C13.6397 12.2963 15.4299 13.1317 17.3255 14.9059C17.3436 14.9229 17.3618 14.9399 17.3799 14.9571L17.6992 15.2764L17.9121 14.8507C17.9187 14.8344 17.9253 14.8182 17.9319 14.802C19.313 11.4277 21.1141 9.6361 23.0207 9.74202C24.5107 9.84845 25.7879 11.1256 26.4265 13.1478C27.4908 16.66 26.4265 22.4072 19.9342 27.1966C12.0584 25.2808 8.86552 20.9172 8.4398 17.405ZM17.5457 14.4283C15.644 12.6835 13.7801 11.7963 12.0584 11.7963C11.5008 11.7963 10.7517 11.9008 10.1998 12.2944C8.48374 13.177 7.71914 15.2234 7.94228 17.4547L7.94217 17.4548L7.94343 17.4652C8.40135 21.243 11.8022 25.7331 19.8161 27.6824L20.0431 27.7376L20.2311 27.5989C26.8637 22.706 28.0408 16.7509 26.905 13.0028L26.905 13.0028L26.9033 12.9972C26.2338 10.8772 24.8368 9.37047 23.0563 9.24329L23.0563 9.24323L23.0485 9.24279C21.9084 9.17946 20.8462 9.69282 19.9133 10.6257C19.0267 11.5123 18.2305 12.8009 17.5457 14.4283Z" fill="white"/>
<path fill-rule="evenodd" clip-rule="evenodd" d="M10.7983 13.2661L10.7469 13.2918C9.58067 13.8749 8.87763 15.3618 9.07303 17.3349C9.45609 20.4677 12.3165 24.5998 19.795 26.5054C25.8904 21.8888 26.777 16.5071 25.8179 13.336C25.2193 11.4436 24.0979 10.4603 22.9804 10.3778C22.2561 10.3392 21.4934 10.6536 20.7173 11.4297C19.9341 12.2129 19.1758 13.4326 18.5023 15.0904L18.493 15.1134L17.8738 16.3518L16.936 15.414C15.0833 13.6662 13.4255 12.9333 12.0585 12.9333C11.575 12.9333 11.105 13.036 10.8442 13.2317L10.7983 13.2661ZM17.9887 14.6649C19.3621 11.3792 21.1401 9.63751 23.0208 9.74199C24.5108 9.84842 25.7879 11.1256 26.4265 13.1478C27.4908 16.6599 26.4265 22.4072 19.9343 27.1965C12.0584 25.2808 8.86555 20.9172 8.43983 17.405C8.22697 15.2764 8.97198 13.467 10.462 12.722C10.8877 12.4027 11.5263 12.2963 12.0585 12.2963C13.6106 12.2963 15.364 13.1012 17.2208 14.8088C17.2738 14.8575 17.3268 14.9069 17.38 14.9571L17.6992 15.2764L17.9121 14.8506C17.9375 14.7882 17.963 14.7263 17.9887 14.6649Z" fill="white"/>
<path fill-rule="evenodd" clip-rule="evenodd" d="M11.0621 13.6932L10.9704 13.7391C10.0565 14.196 9.38857 15.4316 9.56999 17.2799C9.92016 20.1207 12.5266 24.0664 19.6845 25.9602C25.4645 21.4851 26.2181 16.3916 25.3402 13.4838C24.7743 11.6974 23.777 10.9408 22.9486 10.8768C22.4067 10.8496 21.7763 11.0778 21.0708 11.7833C20.3516 12.5025 19.6246 13.6562 18.9655 15.2786L18.5022 15.0904C19.1757 13.4326 19.934 12.213 20.7173 11.4297C21.4934 10.6536 22.256 10.3392 22.9803 10.3778C24.0979 10.4603 25.2193 11.4437 25.8179 13.336C26.777 16.5071 25.8904 21.8888 19.7949 26.5054C12.3165 24.5998 9.45604 20.4678 9.07299 17.3349C8.87758 15.3618 9.58062 13.8749 10.7468 13.2918L10.7982 13.2662L10.8442 13.2317C11.105 13.0361 11.575 12.9334 12.0584 12.9334C13.4255 12.9334 15.0833 13.6662 16.936 15.414L17.8737 16.3518L18.4929 15.1134L18.5022 15.0904L18.9655 15.2786L18.9488 15.3196L18.0107 17.1959L16.5876 15.7728C14.7848 14.0736 13.2458 13.4334 12.0584 13.4334C11.6133 13.4334 11.2756 13.5332 11.1442 13.6317L11.0621 13.6932ZM17.9319 14.802C17.9507 14.756 17.9696 14.7103 17.9886 14.6649C19.3621 11.3792 21.1401 9.63754 23.0207 9.74202C24.5107 9.84845 25.7879 11.1256 26.4265 13.1478C27.4908 16.66 26.4265 22.4072 19.9342 27.1966C12.0584 25.2808 8.8655 20.9172 8.43978 17.405C8.22692 15.2764 8.97193 13.4671 10.462 12.7221C10.8877 12.4028 11.5263 12.2963 12.0584 12.2963C13.6106 12.2963 15.364 13.1012 17.2208 14.8088C17.2556 14.8408 17.2905 14.8732 17.3254 14.9059C17.3436 14.9229 17.3617 14.9399 17.3799 14.9571L17.6992 15.2764L17.9121 14.8507C17.9187 14.8344 17.9253 14.8182 17.9319 14.802ZM17.5457 14.4283C18.2432 12.7706 19.0568 11.4633 19.9648 10.5748C20.8851 9.6741 21.9296 9.18063 23.0484 9.24279L23.0563 9.24323C24.8368 9.37041 26.2338 10.8772 26.9033 12.9972L26.905 13.0028C28.0408 16.7509 26.8637 22.706 20.2311 27.5989L20.0431 27.7376L19.8161 27.6824C11.8022 25.7331 8.40133 21.243 7.94341 17.4652L7.94215 17.4548C7.71902 15.2234 8.48373 13.177 10.1997 12.2944C10.7517 11.9008 11.5008 11.7963 12.0584 11.7963C13.7806 11.7963 15.6448 12.6841 17.5457 14.4283Z" fill="white"/>
<path d="M51.5061 22.855H48.8484L47.3826 19.0376C47.2645 18.7369 47.0819 18.5275 46.835 18.4094C46.5987 18.2913 46.298 18.2322 45.9329 18.2322H44.3061V22.855H41.8256V11.3866H46.9316C48.2631 11.3866 49.2725 11.6765 49.9598 12.2564C50.647 12.8362 50.9907 13.6685 50.9907 14.753C50.9907 15.5154 50.7866 16.1705 50.3786 16.7181C49.9813 17.2658 49.4068 17.6577 48.6551 17.894C49.3316 18.0336 49.8202 18.5007 50.1209 19.2953L51.5061 22.855ZM46.5611 16.3154C47.2806 16.3154 47.8068 16.1973 48.1397 15.9611C48.4725 15.7141 48.639 15.3329 48.639 14.8175C48.639 14.302 48.4725 13.9262 48.1397 13.6899C47.8068 13.443 47.2806 13.3195 46.5611 13.3195H44.2739V16.3154H46.5611Z" fill="white"/>
<path d="M60.3975 18.9732H55.0176C55.0606 19.7356 55.2592 20.294 55.6136 20.6483C55.968 20.9919 56.4941 21.1638 57.1921 21.1638C57.6109 21.1638 58.0297 21.094 58.4485 20.9544C58.8673 20.8148 59.2539 20.6107 59.6082 20.3423L60.2525 21.9852C59.866 22.2966 59.3827 22.5436 58.8029 22.7262C58.2337 22.898 57.6592 22.9839 57.0794 22.9839C55.7049 22.9839 54.6257 22.6081 53.8418 21.8564C53.0579 21.094 52.666 20.0577 52.666 18.7477C52.666 17.9208 52.8324 17.1852 53.1653 16.5409C53.5089 15.8859 53.9868 15.3812 54.5988 15.0268C55.2109 14.6617 55.9035 14.4792 56.6767 14.4792C57.8257 14.4792 58.7331 14.855 59.3988 15.6067C60.0646 16.3477 60.3975 17.3517 60.3975 18.6188V18.9732ZM56.7411 16.1866C56.2794 16.1866 55.9035 16.3208 55.6136 16.5893C55.3344 16.8577 55.1519 17.2497 55.066 17.7651H58.3035C58.1747 16.7128 57.6539 16.1866 56.7411 16.1866Z" fill="white"/>
<path d="M70.1071 11V22.855H67.7071V21.647C67.4601 22.0658 67.1111 22.3933 66.6601 22.6295C66.2091 22.8658 65.699 22.9839 65.1299 22.9839C64.4319 22.9839 63.8091 22.8067 63.2615 22.4523C62.7138 22.0872 62.2843 21.5826 61.9729 20.9383C61.6722 20.2832 61.5219 19.5369 61.5219 18.6993C61.5219 17.8617 61.6722 17.1262 61.9729 16.4926C62.2843 15.8483 62.7084 15.3544 63.2454 15.0107C63.793 14.6564 64.4212 14.4792 65.1299 14.4792C65.6776 14.4792 66.1769 14.5973 66.6279 14.8336C67.0789 15.0591 67.4279 15.3758 67.6749 15.7839V11H70.1071ZM65.8386 21.1315C66.44 21.1315 66.9017 20.9275 67.2239 20.5195C67.546 20.1007 67.7071 19.5047 67.7071 18.7315C67.7071 17.9691 67.5407 17.3839 67.2078 16.9758C66.8856 16.557 66.4292 16.3477 65.8386 16.3477C65.2373 16.3477 64.7702 16.5517 64.4373 16.9597C64.1044 17.3678 63.938 17.9477 63.938 18.6993C63.938 19.4725 64.1044 20.0738 64.4373 20.5034C64.7702 20.9221 65.2373 21.1315 65.8386 21.1315Z" fill="white"/>
<path d="M79.3992 18.9732H74.0193C74.0623 19.7356 74.2609 20.294 74.6153 20.6483C74.9696 20.9919 75.4958 21.1638 76.1938 21.1638C76.6126 21.1638 77.0314 21.094 77.4502 20.9544C77.869 20.8148 78.2555 20.6107 78.6099 20.3423L79.2542 21.9852C78.8676 22.2966 78.3844 22.5436 77.8045 22.7262C77.2354 22.898 76.6609 22.9839 76.0811 22.9839C74.7066 22.9839 73.6274 22.6081 72.8435 21.8564C72.0596 21.094 71.6676 20.0577 71.6676 18.7477C71.6676 17.9208 71.8341 17.1852 72.167 16.5409C72.5106 15.8859 72.9884 15.3812 73.6005 15.0268C74.2126 14.6617 74.9052 14.4792 75.6784 14.4792C76.8274 14.4792 77.7347 14.855 78.4005 15.6067C79.0663 16.3477 79.3992 17.3517 79.3992 18.6188V18.9732ZM75.7428 16.1866C75.281 16.1866 74.9052 16.3208 74.6153 16.5893C74.3361 16.8577 74.1535 17.2497 74.0676 17.7651H77.3052C77.1764 16.7128 76.6555 16.1866 75.7428 16.1866Z" fill="white"/>
<path d="M93.2846 20.3101H87.9209L86.8256 22.855H84.2967L89.5638 11.3866H91.5933L96.8605 22.855H94.3799L93.2846 20.3101ZM92.4631 18.3933L90.6108 14.0926L88.7584 18.3933H92.4631Z" fill="white"/>
<path d="M97.8396 11.3866H100.352V22.855H97.8396V11.3866Z" fill="white"/>
<path d="M108.033 23C106.873 23 105.858 22.7584 104.989 22.2752C104.129 21.7812 103.469 21.094 103.007 20.2134C102.546 19.3221 102.315 18.2859 102.315 17.1047C102.315 15.9342 102.546 14.9087 103.007 14.0282C103.469 13.1369 104.129 12.4497 104.989 11.9664C105.858 11.4832 106.873 11.2416 108.033 11.2416C108.795 11.2416 109.52 11.3597 110.207 11.596C110.905 11.8215 111.474 12.1436 111.915 12.5624L111.125 14.3664C110.61 13.9799 110.105 13.7007 109.611 13.5289C109.128 13.3463 108.618 13.255 108.081 13.255C107.05 13.255 106.261 13.5826 105.713 14.2376C105.166 14.8926 104.892 15.8483 104.892 17.1047C104.892 18.3718 105.166 19.3383 105.713 20.004C106.261 20.6591 107.05 20.9866 108.081 20.9866C108.618 20.9866 109.128 20.9007 109.611 20.7289C110.105 20.5463 110.61 20.2617 111.125 19.8752L111.915 21.6792C111.474 22.098 110.905 22.4255 110.207 22.6617C109.52 22.8872 108.795 23 108.033 23Z" fill="white"/>
<path d="M121.174 20.3101H115.81L114.715 22.855H112.186L117.453 11.3866H119.482L124.749 22.855H122.269L121.174 20.3101ZM120.352 18.3933L118.5 14.0926L116.647 18.3933H120.352Z" fill="white"/>
</svg>
