<svg xmlns="http://www.w3.org/2000/svg" viewBox="0 0 51.93 72"><defs><style>.cls-1{fill:none;stroke:#f77f40;stroke-linecap:round;stroke-linejoin:round;stroke-width:3px;}.cls-2{fill:#fff;}</style></defs><title>icone-mensagem</title><g id="Layer_2" data-name="Layer 2"><g id="Layer_1-2" data-name="Layer 1"><g id="icone_mensagem"><path class="cls-1" d="M13.16,23.2h25.6A3.21,3.21,0,0,1,42,26.4V45.6a3.21,3.21,0,0,1-3.2,3.2H13.16A3.21,3.21,0,0,1,10,45.6V26.4A3.21,3.21,0,0,1,13.16,23.2Z"/><path class="cls-1" d="M42,25.79,26,37,10,25.79"/></g><path class="cls-2" d="M25.71,62.82a1.5,1.5,0,0,0-1.5,1.5V70.5a1.51,1.51,0,0,0,3,0V64.32A1.5,1.5,0,0,0,25.71,62.82Z"/><path class="cls-2" d="M47,54.89a1.53,1.53,0,1,0-2.16,2.17l4.46,4.46a1.53,1.53,0,1,0,2.16-2.17Z"/><path class="cls-2" d="M4.91,54.89.45,59.35a1.53,1.53,0,0,0,2.16,2.17l4.46-4.46a1.53,1.53,0,0,0-2.16-2.17Z"/><path class="cls-2" d="M25.71,9.18a1.5,1.5,0,0,0,1.51-1.5V1.5a1.51,1.51,0,0,0-3,0V7.68A1.5,1.5,0,0,0,25.71,9.18Z"/><path class="cls-2" d="M2.61,10.48A1.53,1.53,0,0,0,.45,12.65l4.46,4.46a1.53,1.53,0,0,0,2.16-2.17Z"/><path class="cls-2" d="M47,17.11l4.46-4.46a1.53,1.53,0,0,0-2.16-2.17l-4.46,4.46A1.53,1.53,0,1,0,47,17.11Z"/></g></g></svg>