<svg xmlns="http://www.w3.org/2000/svg" viewBox="0 0 51.93 72">
<defs>
<style>
.cls-1{
    fill:none;
    stroke:#f77f40;
    stroke-linecap:round;
    stroke-miterlimit:10;
    stroke-width:3px;
    }

.cls-2{fill:#f77f40;}

.cls-3{fill:#fff;}

@keyframes rotate{
    0% { transform: rotate(0deg) scale(.1); }
    100% { transform: rotate(180deg) scale(1); }
}

@keyframes opacity {
  to {
    opacity: 1;
  }
}

.mi #pontos{
    animation: rotate 1s ease-in-out;
    transform-origin: center center;
}

#icone{
    animation: opacity 1s ease-in;
    animation-delay: .3s;
    animation-fill-mode: forwards;
    opacity: 0;
}

</style>
</defs>


<g id="icone">

<path class="cls-1" d="M26,52A16,16,0,1,0,10,36,16,16,0,0,0,26,52Z"/>

<path class="cls-1" d="M19.56,39.2A8.64,8.64,0,0,0,26,42.4a8.64,8.64,0,0,0,6.4-3.2"/>

<path class="cls-2" d="M21.54,32.94a1.69,1.69,0,0,1-1.14-.47,1.66,1.66,0,0,1-.46-1.13,1.59,1.59,0,0,1,.13-.61,2,2,0,0,1,.33-.53,1.69,1.69,0,0,1,2.28,0,2,2,0,0,1,.33.53,1.59,1.59,0,0,1,.13.61,1.71,1.71,0,0,1-.46,1.13l-.24.19a1.15,1.15,0,0,1-.29.15.88.88,0,0,1-.29.09A1.75,1.75,0,0,1,21.54,32.94Z"/>

<path class="cls-2" d="M31.14,32.94A1.69,1.69,0,0,1,30,32.47a1.66,1.66,0,0,1-.46-1.13,1.59,1.59,0,0,1,.13-.61A2,2,0,0,1,30,30.2a1.69,1.69,0,0,1,2.28,0,2,2,0,0,1,.33.53,1.59,1.59,0,0,1,.13.61,1.71,1.71,0,0,1-.46,1.13l-.24.19a1.15,1.15,0,0,1-.29.15.88.88,0,0,1-.29.09A1.75,1.75,0,0,1,31.14,32.94Z"/>

</g>

<g id="pontos">
<path class="cls-3" d="M25.71,62.82a1.5,1.5,0,0,0-1.5,1.5V70.5a1.51,1.51,0,0,0,3,0V64.32A1.5,1.5,0,0,0,25.71,62.82Z"/>

<path class="cls-3" d="M47,54.89a1.53,1.53,0,1,0-2.16,2.17l4.46,4.46a1.53,1.53,0,1,0,2.16-2.17Z"/>

<path class="cls-3" d="M4.91,54.89.45,59.35a1.53,1.53,0,0,0,2.16,2.17l4.46-4.46a1.53,1.53,0,0,0-2.16-2.17Z"/>

<path class="cls-3" d="M25.71,9.18a1.5,1.5,0,0,0,1.51-1.5V1.5a1.51,1.51,0,0,0-3,0V7.68A1.5,1.5,0,0,0,25.71,9.18Z"/>

<path class="cls-3" d="M2.61,10.48A1.53,1.53,0,0,0,.45,12.65l4.46,4.46a1.53,1.53,0,0,0,2.16-2.17Z"/>

<path class="cls-3" d="M47,17.11l4.46-4.46a1.53,1.53,0,0,0-2.16-2.17l-4.46,4.46A1.53,1.53,0,1,0,47,17.11Z"/>
</g>


</svg>