<svg xmlns="http://www.w3.org/2000/svg" viewBox="0 0 51.93 72"><defs><style>.cls-1{fill:#27a855;}.cls-1,.cls-2,.cls-3{fill-rule:evenodd;}.cls-2{fill:#2b71d9;}.cls-3{fill:#f77f40;}</style></defs><title>Asset 6</title><g id="Layer_2" data-name="Layer 2"><g id="Layer_1-2" data-name="Layer 1"><path class="cls-1" d="M26.24,0a1.5,1.5,0,0,1,1.5,1.5V7.68a1.51,1.51,0,0,1-3,0V1.5A1.51,1.51,0,0,1,26.24,0Z"/><path class="cls-2" d="M26.24,62.82a1.5,1.5,0,0,1,1.5,1.5V70.5a1.51,1.51,0,0,1-3,0V64.32A1.51,1.51,0,0,1,26.24,62.82Z"/><path class="cls-2" d="M.45,10.48a1.54,1.54,0,0,1,2.16,0l4.46,4.46a1.53,1.53,0,0,1-2.16,2.17L.45,12.65A1.53,1.53,0,0,1,.45,10.48Z"/><path class="cls-1" d="M44.86,54.89a1.54,1.54,0,0,1,2.16,0l4.46,4.46a1.53,1.53,0,1,1-2.16,2.17l-4.46-4.46A1.53,1.53,0,0,1,44.86,54.89Z"/><path class="cls-1" d="M7.07,54.89a1.53,1.53,0,0,1,0,2.17L2.61,61.52A1.53,1.53,0,0,1,.45,59.35l4.46-4.46A1.54,1.54,0,0,1,7.07,54.89Z"/><path class="cls-2" d="M51.48,10.48a1.53,1.53,0,0,1,0,2.17L47,17.11a1.53,1.53,0,1,1-2.16-2.17l4.46-4.46A1.54,1.54,0,0,1,51.48,10.48Z"/><path class="cls-3" d="M39.91,30.49l-13-10.18a1.46,1.46,0,0,0-1.79,0L12,30.49a1.44,1.44,0,0,0-.56,1.14v16A4.37,4.37,0,0,0,15.81,52H36.12a4.37,4.37,0,0,0,4.35-4.36v-16A1.44,1.44,0,0,0,39.91,30.49ZM28.46,49h-6V37h6Zm9-1.46a1.46,1.46,0,0,1-.43,1A1.39,1.39,0,0,1,36,49H31.47V35.5A1.5,1.5,0,0,0,30,34H21a1.5,1.5,0,0,0-1.5,1.5V49H15.9a1.41,1.41,0,0,1-1-.43,1.5,1.5,0,0,1-.42-1V32.25l11.5-9,11.51,9.05Z"/></g></g></svg>