<svg xmlns="http://www.w3.org/2000/svg" viewBox="0 0 51.93 72"><defs><style>.cls-1{fill:#fff;}.cls-2{fill:#f77f40;}</style></defs><title>Asset 4</title><g id="Layer_2" data-name="Layer 2"><g id="Layer_1-2" data-name="Layer 1"><path class="cls-1" d="M25.71,9.18a1.5,1.5,0,0,0,1.51-1.5V1.5a1.51,1.51,0,0,0-3,0V7.68A1.5,1.5,0,0,0,25.71,9.18Z"/><path class="cls-1" d="M25.71,62.82a1.5,1.5,0,0,0-1.5,1.5V70.5a1.51,1.51,0,0,0,3,0V64.32A1.5,1.5,0,0,0,25.71,62.82Z"/><path class="cls-1" d="M2.61,10.48A1.53,1.53,0,0,0,.45,12.65l4.46,4.46a1.53,1.53,0,0,0,2.16-2.17Z"/><path class="cls-1" d="M47,54.89a1.53,1.53,0,1,0-2.16,2.17l4.46,4.46a1.53,1.53,0,1,0,2.16-2.17Z"/><path class="cls-1" d="M4.91,54.89.45,59.35a1.53,1.53,0,0,0,2.16,2.17l4.46-4.46a1.53,1.53,0,0,0-2.16-2.17Z"/><path class="cls-1" d="M47,17.11l4.46-4.46a1.53,1.53,0,0,0-2.16-2.17l-4.46,4.46A1.53,1.53,0,1,0,47,17.11Z"/><circle class="cls-2" cx="30.44" cy="32.33" r="1.5"/><circle class="cls-2" cx="21.68" cy="32.33" r="1.5"/><path class="cls-2" d="M32.74,37.8a1.39,1.39,0,0,0-2,.28h0l-.05.06-.24.26a7,7,0,0,1-1,.84,5.64,5.64,0,0,1-6.93,0,7.69,7.69,0,0,1-1-.84,3.31,3.31,0,0,1-.23-.26l-.05-.06h0a1.4,1.4,0,1,0-2.23,1.68h0l0,0h0a.77.77,0,0,0,.1.12,3.66,3.66,0,0,0,.36.4A9,9,0,0,0,21,41.51a8.41,8.41,0,0,0,10.22,0,10.2,10.2,0,0,0,1.34-1.17c.15-.16.27-.29.36-.4l.1-.12h0l0,0h0A1.4,1.4,0,0,0,32.74,37.8Z"/><path class="cls-2" d="M26.06,20a16,16,0,1,0,16,16A16,16,0,0,0,26.06,20Zm0,29.21A13.21,13.21,0,1,1,39.26,36,13.21,13.21,0,0,1,26.06,49.21Z"/></g></g></svg>