<svg xmlns="http://www.w3.org/2000/svg" viewBox="0 0 51.93 72">
<defs>
<style>
.cls-1{fill:none;stroke:#f77f40;stroke-linecap:round;stroke-linejoin:round;stroke-width:3px;}
.cls-2{fill:#2b71d9;}
.cls-3{fill:#27a855;}


@keyframes rotate{
    0% { transform: rotate(0deg) scale(.1); }
    100% { transform: rotate(180deg) scale(1); }
}

@keyframes opacity {
  to {
    opacity: 1;
  }
}

#pontos{
    animation: rotate 1s ease-in-out;
    transform-origin: center center;
}

#icone{
    animation: opacity 1s ease-in;
    animation-delay: .3s;
    animation-fill-mode: forwards;
    opacity: 0;
}


</style>
</defs>

<g id="icone">

<path style="fill:none;stroke:#f77f40;stroke-linecap:round;stroke-linejoin:round;stroke-width:3px;" d="M11.56,28.73,26,17.53l14.4,11.2v17.6a3.18,3.18,0,0,1-.93,2.26,3.22,3.22,0,0,1-2.27.94H14.76a3.21,3.21,0,0,1-3.2-3.2Z"/>
<path style="fill:none;stroke:#f77f40;stroke-linecap:round;stroke-linejoin:round;stroke-width:3px;" d="M21.16,49.53v-16h9.6v16"/>

</g>

<g id="pontos">
<path class="cls-2" d="M25.71,62.82a1.5,1.5,0,0,0-1.5,1.5V70.5a1.51,1.51,0,0,0,3,0V64.32A1.5,1.5,0,0,0,25.71,62.82Z"/>

<path class="cls-3" d="M47,54.89a1.53,1.53,0,1,0-2.16,2.17l4.46,4.46a1.53,1.53,0,1,0,2.16-2.17Z"/>

<path class="cls-3" d="M4.91,54.89.45,59.35a1.53,1.53,0,0,0,2.16,2.17l4.46-4.46a1.53,1.53,0,0,0-2.16-2.17Z"/>

<path class="cls-3" d="M25.71,9.18a1.5,1.5,0,0,0,1.51-1.5V1.5a1.51,1.51,0,0,0-3,0V7.68A1.5,1.5,0,0,0,25.71,9.18Z"/>

<path class="cls-2" d="M2.61,10.48A1.53,1.53,0,0,0,.45,12.65l4.46,4.46a1.53,1.53,0,0,0,2.16-2.17Z"/>

<path class="cls-2" d="M47,17.11l4.46-4.46a1.53,1.53,0,0,0-2.16-2.17l-4.46,4.46A1.53,1.53,0,1,0,47,17.11Z"/>
</g>

</svg>