<svg xmlns="http://www.w3.org/2000/svg" viewBox="0 0 51.93 72"><defs><style>.cls-1{fill:#fff;}.cls-2{fill:#f77f40;}</style></defs><title>Asset 3</title><g id="Layer_2" data-name="Layer 2"><g id="Layer_1-2" data-name="Layer 1"><path class="cls-1" d="M26.09,9.18a1.5,1.5,0,0,0,1.5-1.5V1.5a1.51,1.51,0,0,0-3,0V7.68A1.51,1.51,0,0,0,26.09,9.18Z"/><path class="cls-1" d="M26.09,62.82a1.51,1.51,0,0,0-1.51,1.5V70.5a1.51,1.51,0,0,0,3,0V64.32A1.5,1.5,0,0,0,26.09,62.82Z"/><path class="cls-1" d="M2.61,10.48A1.53,1.53,0,0,0,.45,12.65l4.46,4.46a1.53,1.53,0,0,0,2.16-2.17Z"/><path class="cls-1" d="M47,54.89a1.53,1.53,0,1,0-2.16,2.17l4.46,4.46a1.53,1.53,0,1,0,2.16-2.17Z"/><path class="cls-1" d="M4.91,54.89.45,59.35a1.53,1.53,0,0,0,2.16,2.17l4.46-4.46a1.53,1.53,0,0,0-2.16-2.17Z"/><path class="cls-1" d="M47,17.11l4.46-4.46a1.53,1.53,0,0,0-2.16-2.17l-4.46,4.46A1.53,1.53,0,1,0,47,17.11Z"/><path class="cls-2" d="M37.6,23H14.33A4.38,4.38,0,0,0,10,27.36V44.64A4.38,4.38,0,0,0,14.33,49H37.6A4.37,4.37,0,0,0,42,44.64V27.36A4.37,4.37,0,0,0,37.6,23ZM39,44.55A1.45,1.45,0,0,1,37.51,46H14.42A1.46,1.46,0,0,1,13,44.55V29.88l12.17,8.58a1.46,1.46,0,0,0,1.67,0L39,29.88ZM26.43,35.86l-12.93-9A1.45,1.45,0,0,1,14.8,26H38.07a1.46,1.46,0,0,1,1.3.81Z"/></g></g></svg>