<svg width="33" height="33" viewBox="0 0 33 33" fill="none" xmlns="http://www.w3.org/2000/svg">
<path fill-rule="evenodd" clip-rule="evenodd" d="M13.8892 0.876441C14.1261 0.343476 14.6546 0 15.2378 0C16.8035 0 18.305 0.621957 19.4121 1.72905C20.5192 2.83614 21.1412 4.33768 21.1412 5.90334V10.3308H28.011C28.6497 10.3249 29.2821 10.4573 29.8649 10.7188C30.4504 10.9816 30.9719 11.3686 31.393 11.8529C31.8142 12.3372 32.125 12.9073 32.3039 13.5237C32.4829 14.1401 32.5257 14.788 32.4294 15.4226L30.3927 28.7049C30.3927 28.7053 30.3928 28.7045 30.3927 28.7049C30.2324 29.7602 29.6961 30.7232 28.8827 31.4145C28.0714 32.1042 27.0388 32.4782 25.9743 32.4684H4.907C3.73275 32.4684 2.6066 32.0019 1.77628 31.1716C0.94596 30.3413 0.479492 29.2151 0.479492 28.0409V17.71C0.479492 16.5358 0.94596 15.4096 1.77628 14.5793C2.6066 13.749 3.73275 13.2825 4.907 13.2825H8.37539L13.8892 0.876441ZM10.8103 15.0715L16.1349 3.09128C16.5797 3.23318 16.9887 3.47993 17.325 3.81619C17.8785 4.36974 18.1895 5.12051 18.1895 5.90334V11.8067C18.1895 12.6218 18.8503 13.2825 19.6653 13.2825H28.0186L28.0353 13.2824C28.2492 13.28 28.4611 13.3241 28.6563 13.4117C28.8515 13.4993 29.0253 13.6283 29.1657 13.7897C29.306 13.9512 29.4097 14.1412 29.4693 14.3467C29.5289 14.5519 29.5432 14.7677 29.5112 14.979C29.5112 14.9788 29.5112 14.9792 29.5112 14.979L27.4744 28.2623C27.4211 28.6142 27.2423 28.935 26.9711 29.1655C26.6999 29.3961 26.3545 29.5208 25.9986 29.5168L10.8103 29.5167V15.0715ZM7.85866 29.5167V16.2342H4.907C4.51558 16.2342 4.1402 16.3897 3.86342 16.6664C3.58665 16.9432 3.43116 17.3186 3.43116 17.71V28.0409C3.43116 28.4323 3.58665 28.8077 3.86342 29.0844C4.1402 29.3612 4.51558 29.5167 4.907 29.5167H7.85866Z" fill="#F77F40"/>
</svg>
