<svg width="41" height="36" viewBox="0 0 41 36" fill="none" xmlns="http://www.w3.org/2000/svg">
<path fill-rule="evenodd" clip-rule="evenodd" d="M24.6648 1.11382C26.0494 0.540143 27.5333 0.244873 29.032 0.244873C30.5306 0.244873 32.0146 0.540143 33.3991 1.11382C34.7833 1.68738 36.0411 2.52801 37.1004 3.58769C38.1601 4.64703 39.0013 5.90532 39.5749 7.28957C40.1485 8.67408 40.4438 10.158 40.4438 11.6567C40.4438 13.1554 40.1485 14.6393 39.5749 16.0238C39.0012 17.4082 38.1605 18.666 37.1007 19.7254C37.1006 19.7255 37.1008 19.7253 37.1007 19.7254L21.585 35.2411C20.8995 35.9266 19.7882 35.9266 19.1028 35.2411L3.58704 19.7254C1.44709 17.5855 0.244873 14.6831 0.244873 11.6567C0.244873 8.63034 1.44709 5.72794 3.58704 3.58798C5.727 1.44803 8.62941 0.245812 11.6558 0.245812C14.6821 0.245812 17.5845 1.44803 19.7245 3.58798L20.3439 4.20737L20.963 3.58827C20.9631 3.58818 20.9629 3.58837 20.963 3.58827C22.0224 2.52846 23.2805 1.68743 24.6648 1.11382ZM29.032 3.75522C27.9944 3.75522 26.9671 3.95964 26.0086 4.35679C25.0501 4.75395 24.1792 5.33606 23.4457 6.06988L21.585 7.93066C20.8995 8.61609 19.7882 8.61609 19.1028 7.93066L17.2423 6.07017C15.7606 4.58853 13.7511 3.75616 11.6558 3.75616C9.56041 3.75616 7.55087 4.58853 6.06923 6.07017C4.58759 7.55181 3.75522 9.56134 3.75522 11.6567C3.75522 13.7521 4.58759 15.7616 6.06923 17.2432L20.3439 31.5179L34.6185 17.2432C35.3523 16.5098 35.9347 15.6386 36.3319 14.6801C36.729 13.7216 36.9335 12.6942 36.9335 11.6567C36.9335 10.6192 36.729 9.59181 36.3319 8.6333C35.9347 7.6748 35.3526 6.80393 34.6188 6.07046C33.8853 5.33665 33.0139 4.75395 32.0554 4.35679C31.0969 3.95964 30.0695 3.75522 29.032 3.75522Z" fill="#27A855"/>
</svg>
