<svg width="37" height="36" viewBox="0 0 37 36" fill="none" xmlns="http://www.w3.org/2000/svg">
<path fill-rule="evenodd" clip-rule="evenodd" d="M18.4795 3.5999C10.5266 3.5999 4.07952 10.047 4.07952 17.9999C4.07952 25.9528 10.5266 32.3999 18.4795 32.3999C26.4324 32.3999 32.8795 25.9528 32.8795 17.9999C32.8795 10.047 26.4324 3.5999 18.4795 3.5999ZM0.879517 17.9999C0.879517 8.27969 8.7593 0.399902 18.4795 0.399902C28.1997 0.399902 36.0795 8.27969 36.0795 17.9999C36.0795 27.7201 28.1997 35.5999 18.4795 35.5999C8.7593 35.5999 0.879517 27.7201 0.879517 17.9999Z" fill="#2B71D9"/>
<path fill-rule="evenodd" clip-rule="evenodd" d="M13.3545 20.2333C12.823 19.5321 11.8242 19.3914 11.1195 19.9199C10.4126 20.4501 10.2693 21.453 10.7995 22.1599L12.0795 21.1999C10.7995 22.1599 10.7999 22.1605 10.8003 22.161L10.8011 22.1621L10.803 22.1645L10.8074 22.1703L10.8189 22.1854L10.853 22.229C10.8806 22.2639 10.9179 22.3101 10.9649 22.366C11.0587 22.4778 11.1915 22.6293 11.3618 22.807C11.7012 23.1611 12.197 23.6274 12.8385 24.0939C14.1152 25.0224 16.0387 25.9999 18.4795 25.9999C20.9204 25.9999 22.8439 25.0224 24.1206 24.0939C24.762 23.6274 25.2579 23.1611 25.5972 22.807C25.7675 22.6293 25.9003 22.4778 25.9941 22.366C26.0411 22.3101 26.0785 22.2639 26.1061 22.229L26.1401 22.1854L26.1517 22.1703L26.1561 22.1645L26.1579 22.1621L26.1587 22.161C26.1591 22.1605 26.1595 22.1599 24.8795 21.1999L26.1595 22.1599C26.6897 21.453 26.5465 20.4501 25.8395 19.9199C25.1348 19.3914 24.136 19.5321 23.6046 20.2333L23.5971 20.2428C23.5876 20.2548 23.5695 20.2773 23.543 20.3089C23.49 20.3721 23.404 20.4706 23.2868 20.5929C23.0512 20.8388 22.697 21.1725 22.2385 21.506C21.3152 22.1775 20.0387 22.7999 18.4795 22.7999C16.9204 22.7999 15.6439 22.1775 14.7206 21.506C14.262 21.1725 13.9079 20.8388 13.6722 20.5929C13.555 20.4706 13.4691 20.3721 13.416 20.3089C13.3896 20.2773 13.3715 20.2548 13.3619 20.2428L13.3545 20.2333Z" fill="#2B71D9"/>
<path fill-rule="evenodd" clip-rule="evenodd" d="M12.0795 13.2001C12.0795 12.3164 12.7958 11.6001 13.6795 11.6001H13.6955C14.5791 11.6001 15.2955 12.3164 15.2955 13.2001C15.2955 14.0838 14.5791 14.8001 13.6955 14.8001H13.6795C12.7958 14.8001 12.0795 14.0838 12.0795 13.2001Z" fill="#2B71D9"/>
<path fill-rule="evenodd" clip-rule="evenodd" d="M21.6795 13.2001C21.6795 12.3164 22.3958 11.6001 23.2795 11.6001H23.2955C24.1792 11.6001 24.8955 12.3164 24.8955 13.2001C24.8955 14.0838 24.1792 14.8001 23.2955 14.8001H23.2795C22.3958 14.8001 21.6795 14.0838 21.6795 13.2001Z" fill="#2B71D9"/>
</svg>
