<svg width="29" height="29" viewBox="0 0 29 29" fill="none" xmlns="http://www.w3.org/2000/svg">
<circle cx="14.5" cy="14.7185" r="14" fill="#2667EA"/>
<path d="M15.7341 9.65466C15.4464 8.95706 14.9542 8.36288 14.3224 7.95028C13.6906 7.53767 12.9487 7.32596 12.1943 7.34299L10.7042 9.65466H12.09C12.4108 9.64784 12.7221 9.76361 12.9605 9.97838C13.1989 10.1931 13.3464 10.4907 13.373 10.8105C13.3687 11.1333 13.2367 11.4412 13.0058 11.6669C12.775 11.8926 12.4642 12.0176 12.1414 12.0147H9.21513L7.72656 14.3269V18.0837C7.73314 18.7742 7.90942 19.4524 8.23988 20.0587C8.68612 20.8318 9.37029 21.44 10.1904 21.7927V14.3269H12.1928C12.9476 14.3443 13.69 14.1327 14.3222 13.72C14.9544 13.3072 15.4468 12.7127 15.7346 12.0147C15.8769 11.6463 15.9466 11.2538 15.9396 10.8589C15.9472 10.4483 15.8782 10.0399 15.7361 9.65466H15.7341Z" fill="white"/>
<path d="M13.2707 19.4805C13.5585 20.1785 14.0509 20.7731 14.6832 21.1858C15.3154 21.5985 16.0578 21.8101 16.8126 21.7927L18.3011 19.4805H16.9153C16.5942 19.4879 16.2824 19.3723 16.0435 19.1575C15.8047 18.9427 15.6569 18.6448 15.6303 18.3247C15.6345 18.0018 15.7665 17.6938 15.9973 17.468C16.2282 17.2422 16.5391 17.117 16.862 17.12H19.7882L21.2768 14.8078V11.0515C21.2707 10.3612 21.0949 9.68293 20.7649 9.07653C20.3187 8.30338 19.6345 7.69515 18.8144 7.34253V14.8083H16.8126C16.0578 14.7909 15.3154 15.0025 14.6832 15.4152C14.0509 15.828 13.5585 16.4225 13.2707 17.1205C13.1284 17.4889 13.0588 17.8814 13.0657 18.2763C13.0541 18.6872 13.1232 19.0963 13.2692 19.4805H13.2707Z" fill="white"/>
</svg>
